<svg id="svg" version="1.1" xmlns="http://www.w3.org/2000/svg" xmlns:xlink="http://www.w3.org/1999/xlink" width="400" height="400" viewBox="0, 0, 400,400"><g id="svgg"><path id="path0" d="M207.778 134.980 C 207.778 136.908,207.835 137.035,208.796 137.244 C 213.862 138.346,213.602 137.481,213.306 152.222 C 212.935 170.720,212.839 171.394,210.526 171.700 C 206.327 172.255,206.667 172.034,206.667 174.218 L 206.667 176.179 214.352 176.420 C 218.579 176.553,226.728 176.772,232.461 176.907 L 242.885 177.153 243.120 173.484 C 243.250 171.466,243.480 168.373,243.633 166.611 L 243.910 163.407 242.097 163.166 C 241.100 163.034,240.246 162.976,240.200 163.037 C 240.155 163.098,239.466 164.465,238.670 166.074 C 237.874 167.684,236.616 169.684,235.875 170.519 L 234.528 172.037 228.527 172.037 C 220.590 172.037,221.111 172.656,221.111 163.240 L 221.111 156.192 224.305 156.391 C 228.834 156.674,230.332 158.230,230.363 162.685 C 230.370 163.682,230.417 163.704,232.593 163.704 L 234.815 163.704 234.896 157.222 C 234.940 153.657,234.982 149.616,234.988 148.241 L 235.000 145.741 233.184 145.626 C 231.282 145.505,230.757 145.843,230.746 147.198 C 230.718 150.843,226.646 153.149,222.296 151.984 L 221.444 151.756 221.697 144.859 C 221.837 141.066,221.997 137.909,222.053 137.843 C 222.109 137.776,224.545 137.839,227.466 137.982 L 232.778 138.241 234.512 140.020 C 235.560 141.094,236.506 142.529,236.903 143.646 C 237.529 145.408,237.635 145.506,239.184 145.738 C 241.325 146.059,241.211 146.333,241.591 139.961 C 241.979 133.444,242.268 134.073,238.850 133.999 C 237.344 133.967,232.861 133.809,228.889 133.648 C 224.917 133.488,218.542 133.262,214.722 133.147 L 207.778 132.937 207.778 134.980 M175.160 133.480 C 175.044 133.597,170.804 133.782,165.738 133.891 C 160.673 134.000,156.494 134.127,156.453 134.174 C 156.411 134.221,156.461 135.104,156.563 136.135 L 156.748 138.012 159.164 138.425 C 162.527 139.002,162.274 137.773,162.626 155.248 C 163.002 173.957,163.230 172.953,158.611 172.961 C 157.499 172.963,157.408 173.055,157.412 174.167 C 157.426 177.320,158.688 177.539,172.534 176.795 L 177.037 176.553 177.037 174.625 L 177.037 172.698 174.722 172.463 C 171.218 172.106,171.111 171.886,171.111 164.989 C 171.111 161.871,171.010 159.056,170.886 158.734 C 170.702 158.253,170.961 158.148,172.328 158.148 C 173.318 158.148,174.068 158.336,174.176 158.611 C 174.275 158.866,176.418 161.828,178.938 165.194 C 181.457 168.560,184.269 172.429,185.185 173.793 L 186.852 176.273 190.964 176.285 C 193.226 176.291,196.101 176.189,197.353 176.058 L 199.630 175.820 199.630 174.021 C 199.630 172.404,199.545 172.222,198.796 172.217 C 195.893 172.197,193.364 170.406,189.498 165.630 C 187.635 163.329,185.066 160.162,183.789 158.594 L 181.467 155.742 183.974 154.602 C 193.685 150.185,192.945 137.110,182.824 134.277 C 180.723 133.689,175.490 133.145,175.160 133.480 M137.593 135.393 C 134.537 135.660,130.120 135.982,127.778 136.108 C 121.675 136.436,107.814 137.618,107.604 137.828 C 107.436 137.996,107.886 144.559,108.356 148.796 L 108.572 150.741 110.582 150.741 C 112.342 150.741,112.593 150.649,112.593 150.004 C 112.593 146.690,116.206 141.631,118.807 141.303 C 119.769 141.182,120.991 141.014,121.524 140.931 C 122.870 140.720,122.921 141.142,124.823 168.115 C 125.295 174.811,125.396 174.578,121.623 175.496 L 119.074 176.116 119.180 177.948 C 119.238 178.956,119.348 179.841,119.423 179.916 C 119.498 179.991,124.242 179.676,129.965 179.216 L 140.370 178.380 140.370 176.227 L 140.370 174.074 138.172 174.074 C 133.486 174.074,133.575 174.259,132.602 162.407 C 132.183 157.315,131.597 150.731,131.299 147.778 C 131.001 144.824,130.753 141.883,130.749 141.241 L 130.741 140.075 133.288 139.819 C 137.120 139.435,138.836 140.649,141.484 145.617 C 142.632 147.771,142.642 147.778,144.338 147.778 L 146.040 147.778 145.797 142.870 C 145.663 140.171,145.449 137.255,145.321 136.389 C 145.050 134.564,145.871 134.669,137.593 135.393 M273.179 136.533 C 272.798 138.111,256.356 170.790,255.452 171.765 C 254.733 172.541,253.641 172.970,251.019 173.509 C 250.209 173.675,249.999 173.925,249.995 174.729 C 249.992 175.286,249.896 176.092,249.780 176.522 C 249.610 177.154,249.770 177.343,250.619 177.512 C 252.195 177.826,266.668 179.011,266.840 178.839 C 266.922 178.757,267.099 177.859,267.234 176.844 L 267.479 174.997 264.854 174.321 C 261.086 173.350,261.062 173.246,263.407 167.862 C 264.889 164.460,264.914 164.429,266.063 164.610 C 266.700 164.711,269.639 164.982,272.593 165.214 C 275.546 165.446,277.979 165.660,277.998 165.688 C 278.272 166.100,280.368 174.940,280.225 175.084 C 280.116 175.193,278.854 175.366,277.421 175.469 L 274.815 175.655 274.815 177.613 L 274.815 179.571 277.130 179.764 C 280.280 180.028,293.506 180.983,293.569 180.951 C 293.597 180.937,293.738 180.051,293.882 178.981 L 294.144 177.037 293.085 177.037 C 291.604 177.037,289.558 175.857,288.837 174.588 C 288.277 173.602,283.014 155.838,279.249 142.222 C 277.391 135.501,277.714 136.036,275.328 135.723 C 273.471 135.478,273.429 135.494,273.179 136.533 M178.146 138.981 C 184.754 142.346,181.247 153.241,173.426 153.646 L 170.741 153.785 170.741 151.025 C 170.741 149.507,170.632 145.989,170.498 143.207 L 170.256 138.148 173.383 138.148 C 175.894 138.148,176.832 138.312,178.146 138.981 M97.963 138.728 C 97.759 138.780,93.560 139.363,88.631 140.022 L 79.670 141.221 79.859 142.370 C 80.338 145.270,80.274 145.185,81.952 145.187 C 85.843 145.192,87.340 146.395,88.149 150.166 C 89.073 154.468,91.158 171.007,90.946 172.349 C 89.428 181.958,74.661 182.950,72.577 173.584 C 71.754 169.882,69.021 149.066,69.262 148.333 C 69.429 147.826,70.238 147.360,71.826 146.855 L 74.146 146.117 73.901 144.269 C 73.766 143.253,73.586 142.351,73.501 142.266 C 73.348 142.114,56.291 144.339,55.157 144.659 C 54.740 144.777,54.614 145.164,54.714 146.023 C 55.054 148.921,55.026 148.889,57.188 148.889 C 60.685 148.889,60.477 148.325,62.569 163.398 C 64.572 177.828,64.875 178.924,67.602 181.652 C 74.533 188.582,90.559 186.014,94.778 177.298 C 96.439 173.868,96.442 172.566,94.822 160.747 C 92.626 144.727,92.665 144.418,97.047 143.295 C 98.834 142.837,98.888 142.784,98.852 141.504 C 98.804 139.785,98.427 138.609,97.963 138.728 M320.884 141.111 C 300.232 144.137,296.072 177.192,315.432 184.436 C 324.152 187.698,332.947 184.935,337.772 177.417 C 339.219 175.162,339.212 175.126,337.056 173.786 L 335.224 172.647 334.308 174.194 C 331.060 179.681,324.999 181.950,319.731 179.650 C 305.505 173.439,312.809 141.866,327.526 145.953 C 331.315 147.005,334.815 153.199,334.815 158.853 C 334.815 159.853,334.956 159.989,336.204 160.190 C 336.968 160.313,337.949 160.485,338.384 160.574 C 339.300 160.759,339.194 161.264,340.397 150.975 C 340.823 147.335,341.033 144.231,340.864 144.078 C 340.076 143.366,337.061 143.338,336.685 144.039 C 336.340 144.685,336.122 144.630,333.178 143.153 C 328.996 141.054,325.375 140.453,320.884 141.111 M354.274 147.111 C 353.786 149.933,353.770 149.896,355.905 150.997 C 359.000 152.593,359.008 151.561,355.771 168.031 C 352.257 185.911,352.745 184.630,349.441 184.630 L 346.867 184.630 346.538 186.407 C 346.119 188.673,345.276 188.298,355.046 190.191 C 359.706 191.094,363.878 191.920,364.317 192.026 C 365.020 192.196,365.880 189.662,365.624 188.179 C 365.609 188.094,364.880 187.785,364.002 187.493 C 361.944 186.806,361.111 186.045,361.111 184.850 C 361.111 183.621,363.363 172.126,363.675 171.768 C 363.925 171.480,379.625 174.370,380.095 174.790 C 380.400 175.064,378.030 187.414,377.396 188.849 C 377.024 189.691,376.882 189.724,374.473 189.522 L 371.940 189.310 371.559 191.229 C 371.350 192.285,371.248 193.219,371.332 193.305 C 371.443 193.418,389.401 197.031,389.877 197.036 C 389.937 197.037,390.741 193.432,390.741 193.160 C 390.741 193.084,389.927 192.752,388.932 192.422 C 385.430 191.258,385.445 192.393,388.708 175.661 C 390.288 167.557,391.805 160.373,392.079 159.696 L 392.576 158.467 395.084 158.558 C 397.826 158.658,397.965 158.518,398.104 155.543 C 398.146 154.657,380.208 150.409,379.484 151.133 C 379.387 151.230,379.203 152.140,379.074 153.155 L 378.841 155.000 380.917 155.886 C 382.059 156.373,383.149 157.063,383.340 157.420 C 383.623 157.949,381.743 169.324,381.272 169.935 C 381.187 170.046,366.509 167.212,365.153 166.823 C 364.630 166.674,364.684 166.036,365.631 161.088 C 367.134 153.243,366.864 153.704,369.960 153.704 L 372.531 153.704 372.940 151.798 C 373.441 149.461,374.634 149.997,364.444 147.977 C 359.657 147.028,355.458 146.170,355.113 146.070 C 354.637 145.933,354.434 146.186,354.274 147.111 M274.567 154.352 C 276.716 161.591,276.750 161.047,274.167 160.686 C 272.995 160.522,270.919 160.288,269.553 160.166 L 267.070 159.945 268.495 156.917 C 269.278 155.251,270.470 152.681,271.142 151.204 C 272.722 147.735,272.557 147.584,274.567 154.352 M20.416 150.214 C -2.955 156.500,2.098 194.406,26.311 194.440 C 38.852 194.457,47.717 184.755,46.918 171.884 C 45.965 156.538,33.822 146.608,20.416 150.214 M28.704 155.318 C 37.397 159.384,41.431 179.805,34.875 186.560 C 25.756 195.957,13.126 183.654,14.167 166.386 C 14.723 157.147,21.531 151.963,28.704 155.318 M203.241 213.197 C 202.743 213.343,202.593 213.789,202.593 215.120 L 202.594 216.852 204.723 217.493 C 207.866 218.440,207.966 218.549,207.945 221.005 C 207.935 222.184,207.890 227.648,207.845 233.148 C 207.694 251.548,207.688 251.575,203.745 252.032 L 201.481 252.295 201.481 254.081 L 201.481 255.867 203.796 256.090 C 206.031 256.306,232.161 256.962,235.556 256.888 L 237.222 256.852 237.680 251.667 C 237.932 248.815,238.278 245.690,238.450 244.722 L 238.761 242.963 236.862 242.963 L 234.963 242.963 233.563 245.835 C 231.925 249.194,230.022 251.421,228.389 251.889 C 225.677 252.667,217.179 252.142,216.171 251.134 C 215.642 250.605,215.398 244.264,215.733 239.788 L 215.998 236.259 218.647 236.490 C 223.042 236.874,225.185 238.804,225.185 242.376 C 225.185 243.327,228.210 244.161,228.956 243.415 C 229.147 243.223,229.403 239.127,229.525 234.311 L 229.745 225.556 227.711 225.556 L 225.677 225.556 225.076 227.718 C 224.028 231.485,222.784 232.206,217.821 231.923 L 215.828 231.810 216.059 229.886 C 216.186 228.828,216.291 225.646,216.293 222.813 L 216.296 217.664 221.282 217.889 C 227.783 218.183,230.628 220.084,231.671 224.833 C 231.899 225.875,232.002 225.926,233.861 225.926 L 235.812 225.926 236.054 221.423 C 236.187 218.947,236.296 216.219,236.296 215.362 L 236.296 213.803 224.352 213.561 C 217.782 213.429,210.491 213.250,208.148 213.163 C 205.806 213.077,203.597 213.092,203.241 213.197 M169.630 213.724 C 166.065 213.867,161.773 214.004,160.093 214.029 L 157.037 214.074 157.037 216.085 L 157.037 218.096 159.107 218.525 C 162.477 219.225,162.475 219.218,162.734 227.273 C 162.858 231.115,163.129 237.009,163.336 240.370 C 164.080 252.418,164.025 252.667,160.503 253.137 C 158.755 253.371,158.581 253.484,158.374 254.520 C 157.954 256.618,158.086 257.475,158.796 257.273 C 159.153 257.172,164.278 256.974,170.185 256.833 C 176.093 256.693,183.509 256.473,186.667 256.344 L 192.407 256.111 192.508 248.939 C 192.599 242.484,192.549 241.789,192.015 241.994 C 191.688 242.120,190.932 242.222,190.335 242.222 C 189.390 242.222,189.131 242.473,188.329 244.167 C 187.295 246.350,185.276 249.617,184.285 250.712 C 183.397 251.694,180.662 252.222,176.472 252.222 C 171.505 252.222,171.781 252.910,171.436 239.681 C 170.817 215.947,170.487 218.712,174.023 218.040 L 176.296 217.608 176.296 215.471 C 176.296 214.295,176.255 213.363,176.204 213.399 C 176.153 213.435,173.194 213.581,169.630 213.724 M249.481 215.650 C 249.077 217.672,249.208 218.121,250.278 218.382 C 251.463 218.671,253.932 220.291,255.000 221.479 C 255.985 222.574,255.929 225.458,254.656 239.444 C 253.412 253.116,253.546 252.780,249.148 253.266 L 246.858 253.519 246.534 255.296 C 246.355 256.274,246.278 257.142,246.362 257.226 C 246.573 257.437,253.777 258.082,258.704 258.331 C 260.944 258.444,263.329 258.636,264.002 258.758 L 265.227 258.979 265.114 257.039 L 265.000 255.098 262.841 254.432 C 260.006 253.557,259.375 252.928,259.064 250.669 C 258.800 248.745,260.283 228.943,260.731 228.421 C 260.864 228.265,263.194 231.765,265.908 236.199 C 268.622 240.632,271.128 244.593,271.477 245.000 C 272.283 245.940,278.519 256.091,278.519 256.463 C 278.519 260.161,284.899 262.866,285.333 259.352 C 285.672 256.607,286.635 245.012,286.848 241.111 C 287.775 224.180,288.783 221.522,293.930 222.448 C 295.233 222.683,295.541 222.122,295.550 219.497 C 295.554 218.426,295.426 218.118,295.038 218.267 C 294.538 218.459,286.427 217.769,280.741 217.050 C 276.319 216.492,276.614 216.367,276.741 218.742 L 276.852 220.817 279.688 221.709 C 283.832 223.014,283.819 222.946,282.589 236.913 C 282.179 241.564,281.804 245.704,281.755 246.111 C 281.664 246.871,278.705 242.422,276.130 237.653 C 275.001 235.562,263.119 215.959,262.768 215.608 C 262.579 215.418,256.748 214.885,252.722 214.689 L 249.703 214.542 249.481 215.650 M124.074 216.165 C 123.519 216.318,123.070 217.787,119.052 232.593 C 118.085 236.157,116.583 241.241,115.715 243.889 C 114.847 246.537,113.781 249.915,113.347 251.396 C 112.325 254.880,110.986 256.440,108.466 257.086 L 106.583 257.569 106.798 259.390 C 107.084 261.803,106.318 261.677,115.729 260.855 C 125.297 260.018,124.432 260.300,124.182 258.098 L 123.987 256.380 122.209 256.144 C 121.231 256.015,119.898 255.723,119.247 255.496 L 118.064 255.083 118.315 252.819 C 118.454 251.574,118.820 249.538,119.130 248.293 L 119.693 246.031 124.384 245.606 C 126.963 245.371,129.915 245.181,130.943 245.183 L 132.812 245.185 134.895 249.632 C 137.192 254.532,137.200 254.438,134.444 254.984 C 131.865 255.495,131.929 255.429,132.133 257.325 C 132.236 258.287,132.340 259.100,132.364 259.132 C 132.388 259.164,133.824 259.048,135.556 258.875 C 137.287 258.702,140.204 258.472,142.037 258.365 C 143.870 258.258,146.662 258.060,148.241 257.926 L 151.111 257.682 151.106 256.526 C 151.096 254.162,150.822 253.806,148.878 253.619 C 145.951 253.338,145.579 252.890,141.814 245.114 C 139.910 241.181,135.892 233.005,132.884 226.944 L 127.417 215.926 126.023 215.969 C 125.257 215.993,124.380 216.081,124.074 216.165 M76.481 222.422 C 66.704 223.918,58.612 225.151,58.500 225.163 C 58.388 225.175,58.730 228.060,59.260 231.574 L 60.224 237.963 61.996 237.900 C 64.142 237.824,63.961 237.999,64.651 235.334 C 65.989 230.165,67.411 228.441,70.874 227.788 C 72.245 227.529,73.427 227.379,73.501 227.455 C 73.944 227.909,78.428 259.847,78.128 260.408 C 77.788 261.044,76.885 261.420,73.786 262.218 L 72.201 262.627 72.447 264.554 C 72.582 265.614,72.734 266.532,72.785 266.593 C 72.881 266.710,93.797 263.648,94.014 263.485 C 94.083 263.433,94.000 262.538,93.829 261.495 L 93.519 259.599 90.626 259.487 C 88.753 259.414,87.549 259.189,87.209 258.849 C 86.750 258.390,81.617 226.408,81.948 226.076 C 82.006 226.019,83.356 225.854,84.949 225.710 L 87.846 225.447 90.129 227.834 C 91.385 229.147,92.726 230.915,93.108 231.763 L 93.804 233.305 95.513 233.086 C 97.894 232.781,97.842 233.040,96.841 226.479 C 96.343 223.221,95.934 220.347,95.931 220.093 C 95.924 219.440,96.147 219.413,76.481 222.422 M304.444 219.802 C 304.444 219.897,304.022 222.758,303.505 226.161 C 302.511 232.713,302.536 232.937,304.259 232.962 C 304.667 232.968,305.333 233.057,305.741 233.159 C 306.328 233.306,306.631 233.017,307.203 231.765 C 307.600 230.896,308.964 229.120,310.234 227.817 L 312.543 225.449 315.431 225.711 C 317.019 225.854,318.356 226.011,318.403 226.058 C 318.774 226.429,313.559 258.434,313.033 259.016 C 312.511 259.593,311.969 259.680,309.572 259.571 L 306.729 259.442 306.482 261.419 C 306.346 262.506,306.291 263.435,306.358 263.484 C 306.771 263.779,327.261 266.585,327.450 266.373 C 327.577 266.229,327.781 265.338,327.902 264.394 L 328.122 262.677 325.515 261.839 C 321.446 260.531,321.537 261.861,324.278 243.704 C 325.585 235.046,326.657 227.817,326.660 227.638 C 326.667 227.295,328.871 227.557,331.204 228.178 C 333.117 228.687,335.056 232.092,336.080 236.737 C 336.323 237.840,339.421 238.715,339.965 237.834 C 340.351 237.211,341.971 225.551,341.709 225.289 C 341.250 224.830,304.444 219.411,304.444 219.802 M127.682 234.984 C 129.150 237.929,130.231 240.407,130.083 240.490 C 129.607 240.759,121.466 241.590,121.266 241.390 C 121.050 241.174,122.895 234.468,123.330 233.889 C 123.483 233.685,123.828 232.644,124.096 231.574 C 124.747 228.983,124.637 228.879,127.682 234.984 " stroke="none" fill="#fb0404" fill-rule="evenodd"></path><path id="path1" d="M197.787 40.463 C 196.505 44.384,194.418 50.759,193.149 54.630 C 191.880 58.500,190.169 63.750,189.346 66.296 L 187.850 70.926 192.444 71.030 L 197.037 71.133 197.037 87.549 L 197.037 103.965 193.796 104.205 C 189.497 104.524,182.576 105.483,179.815 106.143 C 169.978 108.494,165.167 110.197,157.407 114.076 C 152.641 116.458,150.415 117.689,149.330 118.542 C 148.829 118.937,148.276 119.259,148.101 119.259 C 147.777 119.259,145.335 121.001,142.895 122.972 C 142.145 123.578,141.423 124.074,141.292 124.074 C 141.160 124.074,139.526 125.409,137.661 127.040 L 134.270 130.006 122.876 118.616 C 116.609 112.352,111.481 107.121,111.481 106.991 C 111.481 106.861,112.968 105.247,114.785 103.404 L 118.089 100.053 115.248 98.660 C 113.686 97.894,112.116 97.023,111.759 96.725 C 111.403 96.426,111.111 96.286,111.111 96.414 C 111.111 96.644,108.047 95.115,107.261 94.492 C 107.036 94.314,106.227 93.947,105.463 93.676 C 104.699 93.406,104.074 93.042,104.074 92.867 C 104.074 92.692,103.926 92.640,103.746 92.752 C 103.565 92.863,103.211 92.707,102.960 92.403 C 102.708 92.100,102.343 91.852,102.149 91.852 C 101.780 91.852,98.886 90.420,88.342 85.021 C 84.883 83.250,82.006 81.944,81.948 82.118 C 81.858 82.390,84.497 87.871,85.418 89.323 C 85.589 89.594,85.737 89.898,85.746 90.000 C 85.755 90.102,86.783 92.185,88.030 94.630 C 89.277 97.074,92.118 102.657,94.344 107.037 C 96.569 111.417,98.760 115.717,99.213 116.594 L 100.035 118.187 103.181 115.020 C 104.912 113.277,106.447 111.852,106.592 111.852 C 107.409 111.852,129.614 134.683,129.200 135.097 C 128.235 136.061,133.674 135.998,143.212 134.933 C 145.055 134.728,145.131 134.755,145.249 135.670 C 145.369 136.607,145.401 136.594,147.648 134.699 C 154.954 128.536,162.866 124.088,173.104 120.390 C 176.056 119.324,176.043 119.490,172.895 123.032 C 171.390 124.725,169.415 127.111,168.507 128.333 C 167.599 129.556,166.763 130.639,166.649 130.741 C 166.302 131.051,164.815 133.588,164.815 133.870 C 164.815 134.015,166.505 134.014,168.570 133.867 C 172.192 133.610,173.704 133.039,173.704 131.928 C 173.704 131.648,174.417 130.811,178.424 126.390 C 179.393 125.322,180.384 124.447,180.627 124.446 C 180.870 124.445,181.317 124.091,181.620 123.658 C 183.516 120.952,195.591 115.344,196.838 116.591 C 196.948 116.701,197.037 125.346,197.037 135.802 L 197.037 154.815 194.907 154.802 C 193.736 154.795,191.052 154.634,188.943 154.444 C 185.228 154.109,183.366 154.460,181.900 155.769 C 181.721 155.929,184.185 159.281,185.061 160.069 C 185.576 160.532,186.819 160.736,190.185 160.912 C 192.630 161.040,195.171 161.228,195.833 161.330 L 197.037 161.515 197.037 166.644 C 197.037 172.094,197.080 172.222,198.919 172.222 C 200.387 172.222,199.912 175.852,198.426 175.995 L 197.222 176.111 197.124 186.574 L 197.026 197.037 175.866 197.037 L 154.707 197.037 154.968 192.315 C 155.112 189.718,155.379 186.343,155.561 184.815 C 155.744 183.287,155.985 180.787,156.097 179.259 C 156.209 177.731,156.617 175.065,157.003 173.333 C 157.390 171.602,157.912 169.185,158.163 167.963 C 158.415 166.741,158.947 164.574,159.347 163.148 C 159.746 161.722,160.265 159.806,160.499 158.889 C 161.050 156.739,161.369 156.276,162.107 156.560 C 162.776 156.816,162.636 139.895,161.964 139.223 C 161.789 139.048,160.763 140.848,159.668 143.250 C 157.452 148.112,156.968 148.712,155.782 148.059 C 155.352 147.822,154.833 147.596,154.630 147.556 C 153.952 147.424,149.821 145.832,149.444 145.557 C 149.241 145.409,148.631 145.182,148.090 145.053 C 147.549 144.924,146.840 144.716,146.516 144.592 C 146.029 144.405,145.926 144.663,145.926 146.071 L 145.926 147.778 144.148 147.778 C 142.456 147.778,142.349 147.716,141.906 146.491 C 140.288 142.018,136.912 139.470,133.117 139.859 L 130.655 140.111 130.896 143.111 C 131.590 151.738,131.549 151.467,132.086 150.930 C 132.365 150.651,132.600 150.286,132.609 150.119 C 132.618 149.952,133.349 149.008,134.233 148.021 L 135.841 146.228 138.383 147.546 C 143.024 149.950,147.180 151.812,150.893 153.151 C 152.911 153.879,154.682 154.548,154.828 154.638 C 154.973 154.727,154.701 155.920,154.223 157.288 C 153.745 158.655,153.418 159.838,153.495 159.915 C 153.573 159.992,153.469 160.585,153.265 161.232 C 151.995 165.261,150.811 170.122,150.987 170.582 C 151.101 170.878,151.010 171.342,150.785 171.613 C 150.561 171.884,150.475 172.204,150.596 172.324 C 150.716 172.445,150.674 172.763,150.503 173.031 C 150.331 173.299,150.172 173.852,150.149 174.259 C 150.126 174.667,149.759 177.750,149.334 181.111 C 148.518 187.557,148.508 187.710,148.547 192.462 C 148.589 197.484,150.211 197.037,131.948 197.037 L 116.296 197.037 116.308 195.463 C 116.314 194.597,116.487 192.639,116.693 191.111 C 116.898 189.583,117.146 187.333,117.244 186.111 C 117.342 184.889,117.752 182.679,118.155 181.200 C 118.559 179.720,118.889 177.929,118.889 177.218 C 118.889 176.507,119.019 175.926,119.178 175.926 C 119.428 175.926,120.255 174.268,120.564 173.148 C 121.037 171.434,122.126 168.600,123.232 166.210 L 124.556 163.345 123.738 153.256 C 123.289 147.708,122.872 143.119,122.813 143.060 C 122.715 142.962,120.324 146.299,119.459 147.741 C 119.264 148.067,118.801 148.790,118.432 149.349 C 114.511 155.275,109.667 166.378,107.564 174.259 C 105.583 181.681,104.691 186.911,104.201 193.981 L 103.963 197.407 87.548 197.407 L 71.133 197.407 71.029 192.629 L 70.926 187.850 66.296 189.346 C 63.750 190.169,58.500 191.880,54.630 193.149 C 50.759 194.418,44.384 196.505,40.463 197.787 C 36.542 199.069,33.333 200.219,33.333 200.342 C 33.333 200.597,33.800 200.760,45.000 204.408 C 49.481 205.868,57.148 208.367,62.037 209.962 L 70.926 212.862 71.030 208.283 L 71.133 203.704 87.550 203.704 L 103.968 203.704 104.210 206.759 C 104.550 211.046,105.513 217.922,106.143 220.556 C 107.832 227.623,109.499 232.959,111.348 237.222 C 112.953 240.922,114.989 245.134,115.185 245.160 C 115.287 245.174,116.513 241.261,117.909 236.464 L 120.448 227.743 118.933 222.297 C 118.100 219.302,117.428 216.519,117.439 216.111 C 117.451 215.704,117.380 214.787,117.283 214.074 C 116.602 209.096,116.296 206.312,116.296 205.102 L 116.296 203.704 132.037 203.704 C 147.371 203.704,147.778 203.722,147.778 204.423 C 147.778 204.818,147.955 205.251,148.172 205.385 C 148.399 205.525,148.545 206.751,148.517 208.277 C 148.447 212.073,148.755 216.250,149.448 220.902 C 149.779 223.130,150.085 225.463,150.127 226.088 C 150.169 226.712,150.341 227.442,150.509 227.710 C 150.677 227.978,150.716 228.296,150.596 228.416 C 150.475 228.537,150.561 228.857,150.785 229.128 C 151.010 229.399,151.096 229.874,150.977 230.185 C 150.858 230.496,151.347 232.789,152.065 235.282 C 152.782 237.774,153.428 240.230,153.501 240.740 C 153.573 241.250,153.897 242.500,154.220 243.519 C 155.010 246.010,154.977 246.243,153.796 246.531 C 152.771 246.781,148.412 248.417,145.833 249.519 C 143.118 250.679,145.679 253.704,149.377 253.704 C 150.093 253.704,150.740 253.888,150.815 254.112 C 150.902 254.374,151.993 254.116,153.850 253.395 L 156.748 252.270 157.633 253.155 C 158.120 253.642,158.519 253.892,158.519 253.710 C 158.519 253.528,159.310 253.267,160.278 253.131 C 163.580 252.665,163.744 252.407,163.623 247.872 L 163.519 243.926 162.252 243.907 C 161.045 243.890,160.964 243.802,160.525 242.037 C 160.272 241.019,159.649 238.740,159.139 236.973 C 158.630 235.207,158.289 233.687,158.380 233.595 C 158.472 233.503,158.206 232.198,157.789 230.695 C 156.946 227.659,156.042 222.461,155.961 220.185 C 155.932 219.370,155.755 217.454,155.569 215.926 C 155.383 214.398,155.112 211.023,154.968 208.426 L 154.707 203.704 175.872 203.704 L 197.037 203.704 197.037 221.438 L 197.037 239.173 196.204 239.396 C 195.745 239.519,193.370 239.624,190.926 239.630 C 186.925 239.640,180.646 240.332,173.910 241.505 L 171.481 241.928 171.481 244.976 C 171.481 248.739,171.192 248.530,175.279 247.718 C 177.163 247.345,180.448 246.942,182.579 246.823 C 187.252 246.564,187.400 246.494,188.322 244.109 C 188.932 242.533,189.206 242.221,189.989 242.217 C 190.504 242.214,191.301 242.112,191.759 241.989 C 192.551 241.777,192.593 241.869,192.593 243.846 L 192.593 245.926 194.818 245.926 L 197.044 245.926 196.948 265.093 C 196.838 286.989,197.333 284.595,193.148 283.467 C 189.380 282.452,184.077 279.535,181.848 277.250 C 181.336 276.725,180.753 276.291,180.552 276.285 C 180.350 276.278,179.435 275.434,178.519 274.408 C 177.602 273.382,176.394 272.042,175.833 271.428 C 175.273 270.815,174.815 270.160,174.815 269.972 C 174.815 269.783,174.669 269.630,174.491 269.630 C 174.182 269.630,170.370 264.361,170.370 263.933 C 170.370 263.821,169.730 262.738,168.948 261.528 C 168.165 260.317,167.312 258.811,167.051 258.182 L 166.577 257.037 163.103 257.037 C 161.193 257.037,159.630 257.111,159.630 257.202 C 159.630 258.006,163.232 264.680,165.518 268.113 C 168.340 272.348,169.596 273.973,173.063 277.870 C 175.107 280.169,175.465 280.741,174.861 280.741 C 172.941 280.741,159.753 274.855,157.749 273.104 C 157.427 272.823,157.048 272.593,156.907 272.593 C 156.576 272.593,151.438 269.193,150.516 268.365 C 150.130 268.018,148.648 266.808,147.222 265.677 C 142.058 261.579,140.188 259.571,140.976 258.968 C 141.666 258.441,135.419 258.577,133.056 259.141 C 132.316 259.317,132.215 259.189,132.160 258.003 C 132.127 257.268,132.085 256.388,132.068 256.047 C 132.045 255.592,132.561 255.308,133.993 254.986 C 135.942 254.547,136.915 254.074,135.869 254.074 C 135.329 254.074,132.489 250.584,130.071 246.950 C 128.866 245.138,128.820 245.111,127.293 245.316 C 126.439 245.430,124.447 245.634,122.865 245.769 C 119.605 246.047,119.826 245.877,119.098 248.673 C 118.476 251.060,118.659 251.766,120.546 254.259 C 121.915 256.069,122.194 256.283,123.193 256.291 C 123.846 256.295,124.009 256.573,124.164 257.950 C 124.323 259.360,124.767 260.084,127.175 262.856 L 129.999 266.108 118.430 277.681 L 106.861 289.255 103.477 285.884 C 101.615 284.031,100.005 282.657,99.898 282.831 C 99.791 283.005,98.534 285.421,97.105 288.198 C 95.677 290.975,94.209 293.809,93.844 294.494 C 93.478 295.180,93.166 295.824,93.150 295.926 C 93.133 296.028,92.185 297.944,91.041 300.185 C 84.315 313.363,81.855 318.343,81.942 318.604 C 81.996 318.765,84.206 317.791,86.853 316.438 C 99.820 309.815,103.704 307.894,103.709 308.104 C 103.712 308.230,103.837 308.160,103.987 307.948 C 104.137 307.736,105.509 306.942,107.037 306.182 C 108.565 305.423,110.065 304.650,110.370 304.466 C 110.676 304.281,112.563 303.341,114.564 302.377 L 118.202 300.625 115.027 297.435 C 113.281 295.680,111.852 294.133,111.852 293.998 C 111.852 293.621,134.452 271.111,134.830 271.111 C 135.011 271.111,136.482 272.278,138.097 273.704 C 139.713 275.130,141.146 276.296,141.283 276.296 C 141.420 276.296,142.145 276.792,142.895 277.398 C 145.335 279.369,147.777 281.111,148.101 281.111 C 148.276 281.111,148.829 281.434,149.330 281.828 C 150.844 283.019,158.434 286.969,163.148 289.020 C 171.644 292.715,183.453 295.455,193.981 296.173 L 197.407 296.407 197.407 312.822 L 197.407 329.238 192.629 329.341 L 187.850 329.444 189.346 334.074 C 190.169 336.620,191.880 341.870,193.149 345.741 C 194.418 349.611,196.505 355.986,197.787 359.907 C 199.069 363.829,200.219 367.037,200.342 367.037 C 200.597 367.037,200.760 366.571,204.408 355.370 C 205.868 350.889,208.367 343.222,209.962 338.333 L 212.862 329.444 208.283 329.341 L 203.704 329.237 203.704 312.820 L 203.704 296.403 206.759 296.164 C 217.509 295.325,228.166 292.822,237.222 289.008 C 241.458 287.225,249.478 283.057,251.040 281.828 C 251.542 281.434,252.094 281.111,252.269 281.111 C 252.593 281.111,255.036 279.369,257.475 277.398 C 258.225 276.792,258.955 276.296,259.096 276.296 C 259.238 276.296,260.754 275.046,262.467 273.519 C 264.179 271.991,265.701 270.741,265.848 270.741 C 265.995 270.741,271.253 275.880,277.532 282.162 L 288.949 293.583 285.571 296.962 L 282.192 300.340 283.781 301.160 C 285.329 301.959,296.895 307.841,305.640 312.276 C 308.028 313.487,310.112 314.485,310.269 314.493 C 310.427 314.501,310.735 314.657,310.955 314.839 C 311.721 315.474,317.937 318.527,318.252 318.422 C 318.426 318.364,317.120 315.487,315.350 312.029 C 309.951 301.484,308.519 298.590,308.519 298.222 C 308.519 298.027,308.270 297.663,307.967 297.411 C 307.664 297.159,307.507 296.805,307.619 296.625 C 307.730 296.444,307.678 296.296,307.504 296.296 C 307.329 296.296,306.965 295.671,306.694 294.907 C 306.424 294.144,306.056 293.334,305.878 293.109 C 305.256 292.323,303.726 289.259,303.957 289.259 C 304.084 289.259,303.945 288.968,303.646 288.611 C 303.347 288.255,302.475 286.683,301.708 285.119 L 300.314 282.275 297.164 285.397 C 295.431 287.114,293.901 288.519,293.764 288.519 C 293.626 288.519,288.374 283.376,282.091 277.091 L 270.667 265.663 273.482 262.508 C 275.030 260.773,276.296 259.194,276.296 259.000 C 276.296 258.806,276.713 258.256,277.222 257.778 C 278.545 256.535,278.457 256.224,275.334 251.100 C 271.745 245.208,271.772 245.236,270.930 246.552 C 269.023 249.531,265.333 254.074,264.821 254.074 C 264.499 254.074,263.115 253.480,261.747 252.753 C 260.379 252.026,259.259 251.573,259.259 251.745 C 259.259 252.690,260.602 253.685,262.855 254.410 L 265.370 255.218 265.243 257.039 L 265.116 258.860 262.095 258.646 C 259.419 258.455,259.153 258.492,259.765 258.964 C 260.701 259.687,258.089 262.202,249.455 268.889 C 248.535 269.602,246.739 270.805,245.465 271.563 C 244.191 272.321,242.967 273.093,242.746 273.280 C 240.775 274.943,228.932 280.184,226.130 280.633 C 224.883 280.833,225.147 280.291,227.130 278.587 C 227.690 278.106,228.148 277.495,228.148 277.229 C 228.148 276.963,228.387 276.654,228.680 276.542 C 229.358 276.282,234.211 269.819,236.095 266.667 C 236.887 265.343,237.922 263.667,238.397 262.943 C 238.871 262.219,239.259 261.517,239.259 261.383 C 239.259 261.249,240.009 259.534,240.926 257.573 C 241.843 255.611,242.593 253.864,242.593 253.690 C 242.593 252.731,244.138 252.287,245.498 252.856 C 247.457 253.675,251.338 253.275,252.476 252.136 C 253.778 250.833,254.007 249.028,252.909 248.714 C 252.430 248.577,250.954 248.042,249.630 247.526 C 248.306 247.010,246.844 246.441,246.382 246.262 C 245.590 245.954,245.571 245.865,246.046 244.727 C 246.323 244.062,246.669 242.852,246.814 242.037 C 246.959 241.222,247.580 238.929,248.193 236.940 C 248.807 234.952,249.323 232.827,249.341 232.218 C 249.358 231.609,249.516 231.111,249.693 231.111 C 249.870 231.111,249.914 230.713,249.792 230.226 C 249.670 229.739,249.743 229.233,249.954 229.103 C 250.165 228.972,250.251 228.637,250.144 228.359 C 250.037 228.081,250.130 227.741,250.351 227.604 C 250.572 227.468,250.665 227.213,250.557 227.039 C 250.449 226.864,250.621 225.101,250.940 223.121 C 251.574 219.177,251.498 218.519,250.404 218.519 C 249.365 218.519,249.147 217.962,249.435 216.044 C 249.678 214.423,249.726 214.371,250.770 214.580 C 251.848 214.796,251.852 214.790,251.852 212.976 C 251.852 211.974,252.003 211.062,252.187 210.948 C 252.371 210.834,252.433 209.757,252.324 208.555 C 252.215 207.353,252.239 205.770,252.376 205.037 L 252.626 203.704 268.588 203.704 L 284.551 203.704 284.297 207.070 C 284.157 208.921,283.874 211.296,283.667 212.347 C 283.082 215.330,283.003 217.405,283.473 217.424 C 283.702 217.434,286.222 217.661,289.074 217.929 C 291.926 218.198,294.358 218.315,294.478 218.190 C 294.782 217.875,295.875 210.463,296.164 206.759 L 296.403 203.704 312.820 203.704 L 329.237 203.704 329.341 208.283 L 329.444 212.862 338.333 209.962 C 343.222 208.367,350.889 205.868,355.370 204.408 C 366.571 200.760,367.037 200.597,367.037 200.342 C 367.037 200.219,363.829 199.069,359.907 197.787 C 355.986 196.505,349.611 194.418,345.741 193.149 C 341.870 191.880,336.620 190.169,334.074 189.346 L 329.444 187.850 329.341 192.629 L 329.238 197.407 312.822 197.407 L 296.406 197.407 296.157 193.796 C 296.021 191.810,295.668 188.602,295.373 186.667 C 295.079 184.731,294.740 182.360,294.620 181.398 C 294.383 179.498,293.704 178.604,293.704 180.193 C 293.704 181.059,293.588 181.148,292.685 180.977 C 292.125 180.871,290.167 180.686,288.333 180.565 C 286.500 180.444,284.394 180.257,283.654 180.148 L 282.308 179.949 282.802 182.077 C 283.074 183.247,283.225 184.319,283.138 184.460 C 283.051 184.601,283.218 185.961,283.509 187.482 C 283.800 189.004,284.154 191.776,284.294 193.643 L 284.551 197.037 268.550 197.037 C 257.529 197.037,252.623 196.917,252.788 196.650 C 252.919 196.438,252.830 196.027,252.591 195.738 C 252.325 195.418,252.195 194.231,252.257 192.699 C 252.314 191.316,252.253 189.852,252.122 189.444 C 251.991 189.037,251.801 187.013,251.700 184.946 C 251.402 178.827,251.137 177.407,250.290 177.407 C 249.650 177.407,249.594 177.234,249.811 175.946 C 250.241 173.402,250.280 171.840,249.919 171.617 C 249.727 171.498,249.670 171.002,249.792 170.515 C 249.928 169.974,249.852 169.630,249.597 169.630 C 249.368 169.630,249.270 169.396,249.380 169.110 C 249.489 168.824,249.157 167.115,248.641 165.313 C 248.125 163.511,247.371 160.706,246.965 159.079 C 246.560 157.452,246.071 155.826,245.878 155.466 C 245.484 154.729,245.190 154.893,250.741 152.761 C 254.685 151.247,257.713 149.888,261.951 147.733 L 264.828 146.270 266.077 147.633 L 267.327 148.997 270.150 143.136 L 272.974 137.274 272.043 136.302 C 271.530 135.767,271.111 135.144,271.111 134.917 C 271.111 134.402,293.232 112.222,293.746 112.222 C 293.951 112.222,295.522 113.630,297.235 115.351 C 298.948 117.072,300.448 118.322,300.567 118.129 C 300.687 117.936,300.665 117.778,300.520 117.778 C 300.375 117.778,300.499 117.486,300.795 117.130 C 301.092 116.773,302.655 113.815,304.269 110.556 C 305.883 107.296,307.346 104.528,307.522 104.403 C 307.697 104.278,307.838 104.028,307.834 103.847 C 307.828 103.521,309.144 100.866,315.338 88.708 C 318.491 82.519,318.705 81.686,316.892 82.659 C 316.391 82.928,315.010 83.635,313.824 84.230 C 312.637 84.825,311.375 85.559,311.019 85.862 C 310.662 86.164,310.370 86.317,310.370 86.202 C 310.370 86.023,304.382 89.005,288.519 97.085 C 286.583 98.071,284.792 98.880,284.537 98.883 C 284.282 98.886,284.074 99.044,284.074 99.234 C 284.074 99.424,283.741 99.686,283.333 99.815 C 282.205 100.173,282.352 100.420,285.772 103.910 L 288.952 107.155 277.550 118.561 C 267.914 128.201,266.059 129.899,265.574 129.524 C 265.258 129.280,263.735 127.954,262.188 126.578 C 260.642 125.201,259.255 124.074,259.108 124.074 C 258.960 124.074,258.225 123.578,257.475 122.972 C 255.036 121.001,252.593 119.259,252.269 119.259 C 252.094 119.259,251.542 118.937,251.040 118.542 C 249.956 117.689,247.729 116.458,242.963 114.076 C 235.203 110.197,230.392 108.494,220.556 106.143 C 217.795 105.483,210.874 104.524,206.574 104.205 L 203.333 103.965 203.333 87.549 L 203.333 71.133 208.097 71.029 L 212.862 70.926 209.962 62.037 C 208.367 57.148,205.868 49.481,204.408 45.000 C 200.760 33.800,200.597 33.333,200.342 33.333 C 200.219 33.333,199.069 36.542,197.787 40.463 M211.449 118.613 C 214.310 119.982,218.061 122.466,219.000 123.611 C 219.376 124.069,219.846 124.444,220.045 124.444 C 220.366 124.444,222.245 126.318,224.990 129.375 C 225.505 129.948,225.926 130.573,225.926 130.764 C 225.926 130.955,226.079 131.111,226.266 131.111 C 226.453 131.111,226.952 131.671,227.375 132.354 L 228.143 133.597 231.891 133.856 C 233.953 133.998,235.711 134.043,235.798 133.955 C 235.985 133.768,234.468 131.090,233.871 130.556 C 233.644 130.352,232.807 129.269,232.011 128.148 C 231.215 127.028,229.336 124.725,227.836 123.032 C 226.336 121.338,225.186 119.876,225.280 119.782 C 225.871 119.191,242.155 126.422,242.531 127.442 C 242.599 127.627,242.849 127.781,243.086 127.785 C 244.579 127.809,260.370 140.108,260.370 141.247 C 260.370 141.465,252.765 145.185,252.318 145.185 C 252.138 145.185,251.308 145.515,250.473 145.918 C 249.639 146.322,248.149 146.862,247.163 147.119 C 246.177 147.376,245.143 147.803,244.864 148.069 C 244.085 148.813,242.922 147.840,242.276 145.903 C 241.772 144.391,241.708 144.335,241.366 145.101 C 240.653 146.698,237.615 146.018,236.998 144.123 C 236.098 141.360,233.302 138.148,231.797 138.148 C 231.156 138.148,231.174 138.262,232.028 139.615 C 234.819 144.036,237.692 151.418,236.283 150.547 C 235.306 149.944,234.815 151.202,234.815 154.305 C 234.815 157.766,234.746 157.701,237.514 156.861 C 239.541 156.246,239.298 155.981,240.557 160.185 C 241.269 162.560,241.902 163.333,243.136 163.333 C 243.889 163.333,243.900 163.424,243.578 167.075 C 243.320 169.993,243.372 171.482,243.815 173.835 C 244.127 175.494,244.375 177.102,244.366 177.407 C 244.357 177.713,244.616 180.213,244.940 182.963 C 245.265 185.713,245.645 190.005,245.784 192.500 L 246.037 197.037 224.870 197.037 L 203.704 197.037 203.704 179.276 L 203.704 161.515 204.907 161.331 C 205.569 161.229,207.554 161.075,209.317 160.987 C 213.436 160.782,213.333 160.874,213.333 157.361 L 213.333 154.396 208.519 154.658 L 203.704 154.919 203.704 135.855 C 203.704 125.369,203.796 116.698,203.909 116.585 C 204.300 116.194,209.083 117.480,211.449 118.613 M271.373 150.564 C 270.822 151.689,270.370 152.752,270.370 152.926 C 270.370 153.245,272.669 157.270,273.247 157.963 C 273.417 158.167,273.875 158.875,274.265 159.537 C 274.957 160.711,276.474 161.254,276.231 160.241 C 275.708 158.057,272.735 148.521,272.577 148.520 C 272.467 148.519,271.925 149.439,271.373 150.564 M281.111 148.722 C 281.111 150.433,288.716 174.417,289.529 175.269 C 290.471 176.257,292.818 177.305,293.210 176.913 C 293.684 176.440,291.675 169.815,289.204 163.704 C 286.834 157.840,281.111 147.247,281.111 148.722 M170.741 152.917 C 170.741 153.629,170.944 153.703,172.870 153.698 C 175.532 153.691,176.578 153.162,174.567 152.840 C 173.787 152.715,172.606 152.504,171.944 152.371 C 170.888 152.159,170.741 152.226,170.741 152.917 M221.111 158.096 C 221.111 160.308,220.816 160.224,225.648 159.386 C 231.009 158.457,230.225 156.760,224.262 156.388 L 221.111 156.192 221.111 158.096 M171.111 158.496 C 172.356 159.225,174.675 159.430,174.121 158.762 C 173.795 158.367,173.067 158.152,172.084 158.159 C 171.028 158.167,170.727 158.271,171.111 158.496 M245.773 208.426 C 245.629 211.023,245.276 215.065,244.989 217.407 C 244.702 219.750,244.385 222.667,244.285 223.889 C 244.184 225.111,243.681 227.767,243.166 229.792 C 242.651 231.816,242.047 234.481,241.823 235.714 C 241.251 238.871,239.685 243.434,238.989 243.972 C 238.458 244.383,237.468 252.006,237.420 256.051 C 237.408 257.068,237.360 257.094,235.950 256.856 C 234.574 256.623,234.458 256.678,233.865 257.842 C 232.713 260.106,228.552 266.838,227.611 267.963 C 227.100 268.574,226.511 269.275,226.304 269.521 C 226.096 269.767,225.926 270.049,225.926 270.146 C 225.926 270.554,220.451 276.296,220.062 276.296 C 219.887 276.296,219.461 276.610,219.114 276.993 C 216.723 279.635,208.657 283.700,204.941 284.136 L 203.889 284.259 203.704 270.185 L 203.519 256.111 202.500 255.994 C 201.544 255.884,201.481 255.765,201.481 254.074 C 201.481 252.383,201.544 252.264,202.500 252.154 C 203.509 252.038,203.520 252.008,203.626 249.000 L 203.733 245.964 205.663 245.852 L 207.593 245.741 207.700 242.685 L 207.808 239.630 206.589 239.625 C 205.919 239.622,204.995 239.519,204.537 239.396 L 203.704 239.173 203.704 228.279 C 203.704 218.936,203.625 217.354,203.148 217.171 C 202.761 217.023,202.593 216.419,202.593 215.185 C 202.593 213.951,202.761 213.348,203.148 213.199 C 203.601 213.026,203.704 212.129,203.704 208.345 L 203.704 203.704 224.869 203.704 L 246.034 203.704 245.773 208.426 M291.236 222.648 C 288.646 223.229,288.391 224.004,287.410 234.246 C 286.528 243.449,286.455 243.314,289.012 237.222 C 290.795 232.971,293.704 223.782,293.704 222.397 C 293.704 222.167,293.107 222.228,291.236 222.648 M281.748 222.852 C 281.581 223.144,280.646 225.848,280.525 226.389 C 280.491 226.542,280.421 226.750,280.370 226.852 C 280.319 226.954,280.250 227.162,280.217 227.315 C 279.924 228.642,278.198 233.185,277.350 234.861 C 276.771 236.006,276.296 237.191,276.296 237.493 C 276.296 238.090,281.157 246.289,281.514 246.294 C 281.903 246.298,283.431 226.759,283.175 225.050 C 282.940 223.481,282.116 222.212,281.748 222.852 M122.144 237.820 C 120.987 241.915,120.860 241.653,123.808 241.249 L 126.168 240.926 124.645 237.639 L 123.123 234.353 122.144 237.820 M215.802 240.247 C 215.667 240.383,215.556 241.883,215.556 243.580 L 215.556 246.667 216.759 246.725 C 217.421 246.757,218.213 246.762,218.519 246.735 C 219.338 246.665,227.658 248.081,229.878 248.669 L 231.793 249.177 232.911 247.078 C 234.977 243.203,234.995 243.038,233.413 242.626 C 229.757 241.673,229.259 241.687,229.259 242.737 C 229.259 243.788,228.980 243.864,226.574 243.466 C 225.436 243.278,225.185 243.082,225.185 242.381 C 225.185 241.242,225.115 241.213,220.791 240.563 C 216.556 239.927,216.148 239.901,215.802 240.247 " stroke="none" fill="#1c04fb" fill-rule="evenodd"></path><path id="path2" d="M199.675 33.426 C 199.506 33.884,199.267 34.759,199.144 35.370 L 198.919 36.481 199.443 35.370 C 199.731 34.759,199.974 34.051,199.983 33.796 C 200.009 33.093,200.741 33.243,200.741 33.951 C 200.741 34.290,200.839 34.469,200.960 34.349 C 201.272 34.036,200.760 32.593,200.336 32.593 C 200.141 32.593,199.844 32.968,199.675 33.426 M201.879 36.812 C 201.827 37.444,203.439 42.405,203.574 42.027 C 203.649 41.817,203.305 40.484,202.809 39.064 C 202.313 37.644,201.895 36.630,201.879 36.812 M197.580 39.802 C 197.223 40.939,197.013 41.952,197.115 42.053 C 197.217 42.155,197.570 41.286,197.901 40.123 C 198.683 37.375,198.425 37.117,197.580 39.802 M204.180 44.186 C 204.282 44.452,204.664 45.734,205.029 47.035 C 205.394 48.337,205.759 49.204,205.840 48.961 C 206.001 48.477,204.503 43.704,204.189 43.704 C 204.082 43.704,204.078 43.921,204.180 44.186 M195.037 47.630 C 194.679 48.765,194.473 49.781,194.579 49.887 C 194.684 49.993,195.046 49.133,195.383 47.975 C 196.179 45.236,195.885 44.941,195.037 47.630 M207.065 53.013 C 207.050 53.346,207.281 54.179,207.578 54.865 C 208.256 56.427,208.268 55.458,207.593 53.704 C 207.318 52.991,207.081 52.680,207.065 53.013 M192.658 54.787 C 192.418 55.474,192.234 56.303,192.248 56.629 C 192.263 56.955,192.515 56.564,192.810 55.759 C 193.105 54.955,193.289 54.126,193.219 53.917 C 193.150 53.709,192.897 54.100,192.658 54.787 M208.668 58.056 C 208.778 58.412,209.218 59.845,209.645 61.239 C 210.073 62.634,210.499 63.699,210.592 63.606 C 210.799 63.398,208.935 57.407,208.663 57.407 C 208.556 57.407,208.558 57.699,208.668 58.056 M190.377 61.645 C 190.137 62.373,190.015 63.176,190.105 63.429 C 190.196 63.682,190.470 63.164,190.715 62.277 C 191.258 60.311,190.986 59.802,190.377 61.645 M188.560 67.459 C 188.130 68.732,187.791 70.033,187.808 70.350 C 187.824 70.667,188.233 69.682,188.715 68.161 C 189.782 64.798,189.653 64.219,188.560 67.459 M211.348 66.204 C 211.751 67.838,212.906 70.966,212.936 70.502 C 212.973 69.918,211.494 65.185,211.274 65.185 C 211.177 65.185,211.210 65.644,211.348 66.204 M192.023 71.388 C 194.984 71.467,196.548 71.656,196.739 71.957 C 196.937 72.268,197.027 72.207,197.031 71.759 C 197.037 71.171,196.597 71.119,192.315 71.191 L 187.593 71.270 192.023 71.388 M203.339 71.759 C 203.343 72.207,203.433 72.268,203.631 71.956 C 203.824 71.653,205.423 71.467,208.533 71.388 L 213.148 71.271 208.241 71.191 C 203.782 71.118,203.334 71.170,203.339 71.759 M81.481 82.151 C 81.481 82.889,82.562 84.527,82.581 83.818 C 82.587 83.576,82.426 83.274,82.222 83.148 C 81.325 82.594,81.841 81.866,82.870 82.234 C 83.824 82.574,83.843 82.561,83.170 82.039 C 82.202 81.288,81.481 81.336,81.481 82.151 M317.407 82.053 L 316.481 82.599 317.507 82.369 C 318.500 82.146,318.520 82.172,318.153 83.199 C 317.800 84.186,317.812 84.209,318.331 83.540 C 319.531 81.994,318.989 81.122,317.407 82.053 M313.241 84.097 C 311.662 84.904,310.370 85.755,310.370 85.988 C 310.370 86.257,310.606 86.211,311.019 85.862 C 311.375 85.559,312.622 84.856,313.789 84.299 C 314.956 83.742,316.008 83.130,316.126 82.939 C 316.418 82.467,316.474 82.444,313.241 84.097 M85.601 83.483 C 85.824 83.724,90.600 86.210,98.273 90.076 C 100.276 91.085,101.987 91.841,102.073 91.754 C 102.160 91.667,98.621 89.778,94.208 87.557 C 85.998 83.424,85.200 83.047,85.601 83.483 M83.717 86.887 C 84.298 88.415,85.304 90.000,85.693 90.000 C 85.884 90.000,85.792 89.708,85.489 89.352 C 85.185 88.995,84.721 88.158,84.457 87.492 C 84.193 86.826,83.833 86.191,83.657 86.082 C 83.480 85.973,83.507 86.335,83.717 86.887 M308.393 86.525 C 307.815 86.839,307.424 87.178,307.525 87.279 C 307.723 87.476,310.000 86.393,310.000 86.102 C 310.000 85.799,309.482 85.935,308.393 86.525 M314.490 90.398 C 313.260 92.892,312.410 94.775,312.602 94.583 C 313.139 94.046,317.065 86.201,316.886 86.022 C 316.799 85.935,315.721 87.905,314.490 90.398 M304.237 88.692 C 303.842 88.991,303.695 89.241,303.911 89.247 C 304.126 89.254,304.626 89.015,305.022 88.715 C 305.417 88.416,305.564 88.166,305.349 88.160 C 305.133 88.153,304.633 88.393,304.237 88.692 M300.556 90.584 C 299.741 91.071,299.241 91.471,299.444 91.473 C 299.648 91.476,300.481 91.067,301.296 90.565 C 302.111 90.063,302.611 89.663,302.407 89.676 C 302.204 89.689,301.370 90.098,300.556 90.584 M85.708 90.687 C 85.816 90.862,86.080 91.468,86.296 92.035 C 86.511 92.602,86.778 92.975,86.890 92.864 C 87.109 92.644,86.033 90.370,85.709 90.370 C 85.601 90.370,85.600 90.513,85.708 90.687 M296.481 92.618 C 295.236 93.416,295.407 93.554,296.834 92.904 C 297.353 92.667,297.778 92.334,297.778 92.163 C 297.778 91.776,297.818 91.762,296.481 92.618 M104.074 92.928 C 104.074 93.103,104.366 93.331,104.722 93.433 C 105.079 93.536,105.704 93.746,106.111 93.901 C 107.217 94.322,106.316 93.561,105.093 93.041 C 104.532 92.803,104.074 92.752,104.074 92.928 M291.408 95.129 C 289.503 96.204,288.519 97.035,290.000 96.319 C 292.511 95.105,293.333 94.622,293.333 94.360 C 293.333 94.014,293.511 93.943,291.408 95.129 M88.148 95.262 C 88.148 95.706,89.673 98.872,89.978 99.060 C 90.158 99.172,89.885 98.387,89.372 97.317 C 88.441 95.375,88.148 94.883,88.148 95.262 M109.259 95.574 C 110.492 96.411,111.111 96.676,111.111 96.369 C 111.111 96.191,110.687 95.851,110.168 95.615 C 109.009 95.087,108.509 95.064,109.259 95.574 M311.500 96.062 C 311.295 96.601,310.860 97.559,310.533 98.191 C 310.206 98.824,310.100 99.241,310.297 99.120 C 310.791 98.814,312.310 95.520,312.068 95.278 C 311.961 95.171,311.705 95.523,311.500 96.062 M286.296 97.792 C 285.176 98.370,284.370 98.853,284.506 98.865 C 284.831 98.896,287.807 97.561,288.519 97.065 C 289.559 96.340,288.339 96.740,286.296 97.792 M114.367 98.201 C 115.038 98.630,115.678 98.889,115.791 98.777 C 115.903 98.665,115.488 98.311,114.868 97.990 C 113.248 97.153,112.936 97.284,114.367 98.201 M282.957 99.639 L 282.037 100.338 282.949 101.187 L 283.861 102.037 283.149 101.181 C 282.427 100.313,282.563 100.004,283.889 99.501 C 284.093 99.424,284.173 99.266,284.069 99.150 C 283.964 99.034,283.464 99.254,282.957 99.639 M90.370 99.833 C 90.370 100.292,91.550 102.277,91.721 102.106 C 91.920 101.907,90.839 99.630,90.546 99.630 C 90.449 99.630,90.370 99.721,90.370 99.833 M309.259 100.370 C 309.023 100.813,308.912 101.258,309.014 101.360 C 309.116 101.462,309.393 101.183,309.630 100.741 C 309.866 100.298,309.977 99.853,309.875 99.751 C 309.773 99.650,309.496 99.928,309.259 100.370 M308.073 102.965 C 307.726 103.575,307.559 104.073,307.702 104.072 C 307.846 104.070,308.247 103.570,308.594 102.961 C 308.941 102.351,309.108 101.853,308.964 101.854 C 308.821 101.855,308.420 102.355,308.073 102.965 M92.593 104.278 C 92.593 104.737,93.772 106.722,93.944 106.550 C 94.142 106.352,93.061 104.074,92.768 104.074 C 92.672 104.074,92.593 104.166,92.593 104.278 M184.879 104.892 C 183.793 105.089,182.975 105.321,183.061 105.407 C 183.147 105.493,184.619 105.329,186.331 105.042 C 188.043 104.755,188.861 104.523,188.148 104.526 C 187.435 104.530,185.964 104.694,184.879 104.892 M214.039 105.042 C 215.752 105.329,217.219 105.497,217.300 105.416 C 217.502 105.214,212.933 104.435,211.822 104.482 C 211.329 104.503,212.327 104.755,214.039 105.042 M306.220 106.570 C 305.133 108.854,305.087 109.734,306.161 107.720 C 306.524 107.039,306.834 106.398,306.849 106.296 C 306.865 106.194,307.086 105.736,307.341 105.278 C 307.596 104.819,307.673 104.449,307.513 104.455 C 307.353 104.460,306.771 105.412,306.220 106.570 M174.444 107.222 C 172.716 107.888,173.462 107.901,175.556 107.241 C 176.472 106.953,176.889 106.718,176.481 106.720 C 176.074 106.721,175.157 106.948,174.444 107.222 M224.815 107.241 C 225.731 107.530,226.648 107.756,226.852 107.744 C 227.500 107.705,224.662 106.723,223.889 106.720 C 223.481 106.718,223.898 106.953,224.815 107.241 M94.165 107.685 C 94.482 108.042,95.010 108.984,95.338 109.779 C 95.667 110.574,96.021 111.139,96.125 111.035 C 96.408 110.752,94.400 107.037,93.964 107.037 C 93.758 107.037,93.848 107.329,94.165 107.685 M122.759 118.410 C 133.717 129.458,135.185 130.704,135.185 128.955 C 135.185 128.837,134.982 128.944,134.733 129.193 C 134.376 129.550,131.841 127.227,122.788 118.249 L 111.296 106.852 122.759 118.410 M277.428 118.312 C 271.229 124.514,265.996 129.488,265.799 129.366 C 265.591 129.237,265.562 129.341,265.732 129.615 C 265.960 129.984,288.889 107.722,288.889 107.132 C 288.889 106.872,287.909 107.827,277.428 118.312 M303.912 111.134 C 302.685 113.678,302.925 113.918,304.213 111.435 C 304.758 110.385,305.126 109.447,305.030 109.351 C 304.934 109.255,304.431 110.058,303.912 111.134 M96.368 111.759 C 98.326 115.835,98.923 116.976,99.423 117.593 C 99.753 118.000,99.260 116.792,98.326 114.907 C 97.393 113.023,96.541 111.481,96.432 111.481 C 96.323 111.481,96.295 111.606,96.368 111.759 M156.296 114.259 C 155.787 114.550,155.537 114.789,155.741 114.789 C 155.944 114.789,156.528 114.550,157.037 114.259 C 157.546 113.968,157.796 113.730,157.593 113.730 C 157.389 113.730,156.806 113.968,156.296 114.259 M243.333 114.259 C 243.843 114.550,244.426 114.789,244.630 114.789 C 244.833 114.789,244.583 114.550,244.074 114.259 C 243.565 113.968,242.981 113.730,242.778 113.730 C 242.574 113.730,242.824 113.968,243.333 114.259 M194.074 116.912 C 190.341 117.686,183.029 121.646,181.620 123.658 C 181.317 124.091,180.870 124.445,180.627 124.446 C 179.991 124.448,173.704 131.375,173.704 132.074 C 173.704 132.315,173.454 132.609,173.148 132.727 C 172.843 132.844,172.593 133.112,172.593 133.322 C 172.593 134.061,173.158 133.685,174.074 132.335 C 174.583 131.586,175.688 130.273,176.529 129.419 C 177.369 128.565,178.119 127.721,178.195 127.544 C 179.604 124.262,195.333 115.503,196.457 117.374 C 196.529 117.494,196.588 125.826,196.588 135.888 L 196.587 154.184 190.979 153.961 C 187.699 153.830,185.693 153.870,186.147 154.058 C 186.575 154.234,189.200 154.499,191.981 154.647 L 197.037 154.915 197.037 135.813 C 197.037 125.306,196.912 116.644,196.759 116.562 C 196.606 116.480,195.398 116.638,194.074 116.912 M203.909 116.585 C 203.796 116.698,203.704 125.346,203.704 135.802 L 203.704 154.815 205.463 154.813 C 208.509 154.809,213.333 154.346,213.333 154.058 C 213.333 153.906,211.266 153.871,208.740 153.980 L 204.147 154.179 204.152 135.886 C 204.154 125.824,204.218 117.488,204.295 117.360 C 204.573 116.890,208.971 118.094,211.395 119.304 C 216.546 121.874,219.965 124.694,224.818 130.370 C 227.698 133.739,228.675 134.537,227.549 132.598 C 227.165 131.939,226.644 131.316,226.389 131.215 C 226.134 131.114,225.926 130.894,225.926 130.724 C 225.926 130.169,220.564 124.444,220.045 124.444 C 219.846 124.444,219.376 124.069,219.000 123.611 C 216.618 120.705,205.135 115.358,203.909 116.585 M172.963 120.422 C 162.445 124.316,155.031 128.503,147.547 134.774 C 145.085 136.838,144.499 137.968,146.876 136.070 C 153.374 130.882,157.953 127.879,162.963 125.522 C 163.880 125.090,165.272 124.407,166.056 124.003 C 166.841 123.598,168.951 122.722,170.746 122.055 L 174.009 120.842 170.768 124.587 C 167.490 128.377,165.796 130.679,164.672 132.870 C 163.817 134.539,164.476 134.392,165.379 132.712 C 165.782 131.964,166.278 131.172,166.481 130.953 C 166.685 130.734,167.596 129.556,168.505 128.333 C 169.414 127.111,171.373 124.745,172.857 123.075 C 176.324 119.173,176.324 119.178,172.963 120.422 M225.185 119.834 C 225.185 119.946,226.395 121.404,227.874 123.075 C 229.353 124.745,231.215 127.028,232.011 128.148 C 232.807 129.269,233.649 130.352,233.882 130.556 C 234.115 130.759,234.701 131.634,235.184 132.500 C 235.955 133.881,236.667 134.527,236.667 133.846 C 236.667 132.980,231.811 126.460,228.394 122.738 L 226.602 120.786 229.805 122.044 C 233.162 123.361,236.581 124.880,238.148 125.749 C 238.657 126.031,240.042 126.777,241.225 127.407 C 243.750 128.750,251.257 133.796,252.593 135.049 C 253.102 135.526,254.799 137.083,256.363 138.508 C 257.928 139.933,259.094 141.167,258.956 141.250 C 257.569 142.078,254.360 143.704,254.112 143.704 C 253.938 143.704,252.817 144.146,251.620 144.686 C 246.884 146.823,243.674 147.770,243.449 147.096 C 242.959 145.629,241.705 143.218,241.599 143.538 C 241.074 145.117,243.879 149.009,244.864 148.069 C 245.143 147.803,246.177 147.376,247.163 147.119 C 248.149 146.862,249.639 146.322,250.473 145.918 C 251.308 145.515,252.138 145.185,252.318 145.185 C 252.765 145.185,260.370 141.465,260.370 141.247 C 260.370 140.108,244.579 127.809,243.086 127.785 C 242.849 127.781,242.599 127.627,242.531 127.442 C 242.118 126.321,225.185 118.893,225.185 119.834 M145.086 120.939 C 144.326 121.456,143.704 121.958,143.704 122.056 C 143.704 122.153,144.370 121.792,145.185 121.252 C 146.479 120.396,146.916 120.000,146.567 120.000 C 146.513 120.000,145.846 120.423,145.086 120.939 M253.704 120.115 C 253.704 120.201,254.412 120.739,255.278 121.310 C 256.144 121.881,256.656 122.112,256.417 121.822 C 255.958 121.266,253.704 119.848,253.704 120.115 M136.458 127.870 L 135.370 129.074 136.574 127.986 C 137.236 127.388,137.778 126.846,137.778 126.783 C 137.778 126.496,137.472 126.748,136.458 127.870 M263.704 127.963 C 264.395 128.676,265.043 129.259,265.145 129.259 C 265.247 129.259,264.765 128.676,264.074 127.963 C 263.383 127.250,262.734 126.667,262.632 126.667 C 262.531 126.667,263.013 127.250,263.704 127.963 M230.765 138.742 C 231.084 139.128,232.000 140.813,232.802 142.486 C 234.451 145.928,235.675 147.054,234.240 143.809 C 232.990 140.984,231.381 138.422,230.725 138.212 C 230.277 138.069,230.284 138.159,230.765 138.742 M160.593 139.688 C 160.267 140.154,160.000 140.706,160.000 140.916 C 160.000 141.125,159.427 142.463,158.726 143.889 C 158.025 145.315,157.366 146.766,157.262 147.113 C 157.066 147.769,153.356 146.671,148.395 144.491 C 146.422 143.623,145.926 143.534,145.926 144.045 C 145.926 144.233,146.551 144.581,147.315 144.818 C 148.079 145.056,149.370 145.546,150.185 145.907 C 151.494 146.488,154.307 147.511,154.815 147.590 C 154.917 147.606,155.352 147.815,155.782 148.054 C 156.957 148.709,157.436 148.126,159.609 143.392 C 161.460 139.361,161.850 137.894,160.593 139.688 M121.197 144.722 C 120.238 146.107,119.927 146.667,120.114 146.667 C 120.201 146.667,120.713 146.000,121.252 145.185 C 122.348 143.529,122.300 143.129,121.197 144.722 M134.167 148.124 C 133.301 149.130,132.593 150.058,132.593 150.188 C 132.593 150.317,132.341 150.675,132.034 150.982 C 131.726 151.290,131.576 151.705,131.700 151.906 C 131.824 152.106,132.631 151.301,133.494 150.116 C 135.783 146.976,135.825 146.955,137.778 147.966 C 142.028 150.166,146.861 152.298,150.929 153.768 L 154.265 154.973 153.641 157.024 C 152.175 161.846,150.765 167.355,150.557 169.074 C 150.434 170.093,150.096 171.850,149.806 172.981 C 148.920 176.428,147.491 190.280,147.413 196.167 C 147.409 196.481,143.420 196.592,132.222 196.589 L 117.037 196.586 117.037 194.853 C 117.037 192.288,118.012 184.891,118.700 182.236 C 119.030 180.961,119.248 179.479,119.184 178.941 C 119.019 177.554,117.476 183.260,117.246 186.111 C 117.147 187.333,116.898 189.583,116.693 191.111 C 116.487 192.639,116.314 194.597,116.308 195.463 L 116.296 197.037 131.948 197.037 C 150.211 197.037,148.589 197.484,148.547 192.462 C 148.508 187.710,148.518 187.557,149.334 181.111 C 149.759 177.750,150.126 174.667,150.149 174.259 C 150.172 173.852,150.331 173.299,150.503 173.031 C 150.674 172.763,150.716 172.445,150.596 172.324 C 150.475 172.204,150.561 171.884,150.785 171.613 C 151.010 171.342,151.101 170.878,150.987 170.582 C 150.811 170.122,151.995 165.261,153.265 161.232 C 153.469 160.585,153.573 159.992,153.495 159.915 C 153.418 159.838,153.745 158.655,154.223 157.288 C 154.701 155.920,154.973 154.727,154.828 154.638 C 154.682 154.548,152.911 153.879,150.893 153.151 C 147.201 151.820,143.040 149.957,138.447 147.580 C 137.083 146.874,135.916 146.296,135.854 146.296 C 135.792 146.297,135.032 147.119,134.167 148.124 M235.202 146.778 C 235.193 147.144,235.444 147.944,235.760 148.555 C 236.291 149.583,236.283 149.712,235.650 150.296 C 235.273 150.642,235.174 150.787,235.429 150.616 C 235.685 150.446,236.069 150.415,236.283 150.547 C 237.114 151.061,237.044 149.618,236.154 147.907 C 235.640 146.919,235.212 146.411,235.202 146.778 M262.005 147.718 C 258.353 149.607,254.856 151.172,250.741 152.757 C 245.182 154.898,245.484 154.730,245.878 155.466 C 246.071 155.826,246.560 157.452,246.965 159.079 C 247.371 160.706,248.125 163.511,248.641 165.313 C 249.157 167.115,249.489 168.824,249.380 169.110 C 249.270 169.396,249.376 169.630,249.615 169.630 C 249.881 169.630,249.959 169.916,249.816 170.367 C 249.687 170.773,249.713 171.314,249.874 171.571 C 250.034 171.827,250.186 172.204,250.212 172.407 C 250.237 172.611,250.283 172.996,250.314 173.263 C 250.345 173.529,250.506 173.664,250.672 173.561 C 251.032 173.339,249.207 164.129,248.172 160.946 C 247.771 159.713,247.333 158.077,247.198 157.311 C 247.063 156.545,246.805 155.826,246.625 155.715 C 246.010 155.335,246.294 154.896,247.315 154.649 C 248.998 154.241,256.211 151.206,260.556 149.076 L 264.630 147.080 265.776 148.350 C 267.185 149.911,267.760 149.604,266.425 148.004 C 264.975 146.266,264.828 146.257,262.005 147.718 M280.741 147.957 C 280.741 148.079,281.095 148.547,281.527 148.997 L 282.314 149.815 281.896 149.002 C 281.482 148.198,280.741 147.527,280.741 147.957 M170.741 151.801 C 170.741 152.261,176.415 153.338,176.813 152.954 C 177.003 152.770,176.687 152.531,176.072 152.392 C 175.482 152.259,174.417 152.001,173.704 151.818 C 172.059 151.396,170.741 151.389,170.741 151.801 M270.002 153.456 C 270.001 153.829,270.569 154.995,271.264 156.048 C 271.959 157.101,272.823 158.588,273.184 159.352 C 273.725 160.495,274.815 161.291,274.815 160.543 C 274.815 160.291,273.614 158.395,273.299 158.148 C 273.169 158.046,272.715 157.296,272.290 156.481 C 270.979 153.966,270.005 152.678,270.002 153.456 M114.134 156.497 C 113.514 157.859,113.632 158.150,114.303 156.912 C 114.616 156.334,114.803 155.791,114.719 155.706 C 114.634 155.622,114.371 155.978,114.134 156.497 M285.582 155.741 C 285.582 155.944,285.820 156.528,286.111 157.037 C 286.402 157.546,286.640 157.796,286.640 157.593 C 286.640 157.389,286.402 156.806,286.111 156.296 C 285.820 155.787,285.582 155.537,285.582 155.741 M161.216 156.775 C 161.056 157.021,160.734 157.972,160.499 158.889 C 160.265 159.806,159.746 161.722,159.347 163.148 C 158.947 164.574,158.415 166.741,158.163 167.963 C 157.912 169.185,157.390 171.602,157.003 173.333 C 156.617 175.065,156.209 177.731,156.097 179.259 C 155.985 180.787,155.744 183.287,155.561 184.815 C 155.379 186.343,155.112 189.718,154.968 192.315 L 154.707 197.037 175.861 197.037 L 197.015 197.037 197.119 186.481 C 197.176 180.676,197.097 175.926,196.944 175.926 C 196.612 175.926,196.623 175.613,196.544 187.222 L 196.481 196.481 175.987 196.523 C 158.543 196.558,155.463 196.486,155.290 196.036 C 155.029 195.355,155.713 187.386,156.683 179.815 C 157.842 170.766,160.956 157.956,162.103 157.516 C 162.751 157.267,162.725 156.797,162.049 156.537 C 161.750 156.423,161.375 156.530,161.216 156.775 M236.944 156.980 C 235.773 157.295,234.815 157.691,234.815 157.858 C 234.815 158.025,235.273 158.040,235.833 157.891 C 238.601 157.152,238.965 157.364,239.928 160.278 C 240.742 162.742,241.835 164.276,241.115 161.944 C 240.942 161.384,240.522 160.009,240.182 158.889 C 239.386 156.270,239.445 156.306,236.944 156.980 M229.259 158.465 C 229.259 158.639,227.426 159.087,225.185 159.461 C 222.944 159.835,221.111 160.295,221.111 160.484 C 221.111 160.673,221.569 160.729,222.130 160.610 C 222.690 160.490,224.606 160.184,226.389 159.929 C 229.075 159.545,229.630 159.353,229.630 158.807 C 229.630 158.445,229.546 158.148,229.444 158.148 C 229.343 158.148,229.259 158.291,229.259 158.465 M170.961 159.033 C 171.108 159.415,171.631 159.630,172.417 159.630 C 173.091 159.630,173.907 159.731,174.229 159.854 C 174.551 159.978,174.815 159.916,174.815 159.717 C 174.815 159.517,174.163 159.250,173.366 159.122 C 172.569 158.995,171.650 158.788,171.324 158.663 C 170.890 158.497,170.793 158.595,170.961 159.033 M185.457 160.747 C 186.233 161.579,186.584 161.643,191.013 161.765 C 193.613 161.836,195.926 161.954,196.153 162.027 C 196.428 162.116,196.567 163.727,196.568 166.834 C 196.569 169.405,196.675 171.613,196.803 171.742 C 196.932 171.870,197.037 169.622,197.037 166.745 L 197.037 161.515 195.833 161.330 C 195.171 161.228,192.630 161.039,190.185 160.911 C 187.741 160.782,185.491 160.492,185.185 160.267 C 184.880 160.042,185.002 160.258,185.457 160.747 M212.037 160.741 C 211.426 160.896,209.676 161.045,208.148 161.072 C 206.620 161.099,204.995 161.222,204.537 161.345 L 203.704 161.568 203.704 179.302 L 203.704 197.037 224.870 197.037 L 246.037 197.037 245.785 192.500 C 245.646 190.005,245.281 185.796,244.973 183.148 C 244.665 180.500,244.354 177.667,244.282 176.852 C 244.004 173.711,243.584 171.961,243.345 172.944 C 243.223 173.443,243.484 176.359,243.925 179.425 C 244.924 186.379,245.745 195.269,245.457 196.020 C 245.265 196.519,242.815 196.579,224.749 196.533 L 204.259 196.481 204.198 179.354 C 204.165 169.934,204.265 162.148,204.421 162.052 C 204.576 161.956,206.547 161.854,208.800 161.826 C 212.487 161.780,212.915 161.705,213.080 161.073 C 213.181 160.686,213.238 160.390,213.206 160.414 C 213.174 160.438,212.648 160.585,212.037 160.741 M123.084 166.497 C 122.045 168.784,120.798 172.113,120.593 173.148 C 120.553 173.352,120.320 173.883,120.075 174.328 C 119.551 175.279,119.501 175.926,119.950 175.926 C 120.127 175.926,120.721 174.634,121.271 173.056 C 121.821 171.477,122.778 169.090,123.398 167.751 C 124.017 166.412,124.464 165.002,124.390 164.618 C 124.301 164.158,123.855 164.800,123.084 166.497 M277.071 167.019 C 277.460 167.824,277.780 168.616,277.783 168.778 C 277.792 169.209,280.336 175.428,280.355 175.062 C 280.388 174.404,278.818 168.686,278.520 168.381 C 278.348 168.203,278.294 167.828,278.402 167.547 C 278.510 167.267,278.425 167.037,278.213 167.037 C 278.001 167.037,277.722 166.704,277.593 166.296 C 277.463 165.889,277.134 165.556,276.861 165.556 C 276.480 165.556,276.530 165.899,277.071 167.019 M109.319 167.608 C 109.083 168.128,108.895 168.754,108.903 168.999 C 108.911 169.244,109.164 168.878,109.465 168.185 C 110.098 166.726,109.964 166.195,109.319 167.608 M107.096 174.763 C 106.860 175.552,106.678 176.428,106.692 176.710 C 106.707 176.992,106.967 176.413,107.271 175.424 C 107.574 174.435,107.756 173.559,107.675 173.477 C 107.593 173.395,107.333 173.974,107.096 174.763 M292.626 173.519 C 292.614 173.722,292.840 174.639,293.129 175.556 C 293.418 176.472,293.653 176.889,293.651 176.481 C 293.647 175.709,292.666 172.870,292.626 173.519 M251.255 179.269 C 251.386 180.089,251.581 182.547,251.689 184.732 C 251.796 186.916,251.991 189.037,252.122 189.444 C 252.253 189.852,252.314 191.316,252.257 192.699 C 252.195 194.231,252.325 195.418,252.591 195.738 C 252.830 196.027,252.919 196.438,252.788 196.650 C 252.623 196.917,257.529 197.037,268.550 197.037 L 284.551 197.037 284.294 193.643 C 284.154 191.776,283.800 189.004,283.509 187.482 C 283.218 185.961,283.047 184.608,283.129 184.476 C 283.345 184.126,282.573 180.617,282.189 180.210 C 281.626 179.611,281.480 180.187,281.862 181.506 C 282.398 183.363,283.313 189.694,283.579 193.391 L 283.810 196.598 268.644 196.585 L 253.478 196.573 252.833 188.935 C 251.998 179.054,251.832 177.778,251.386 177.778 C 251.162 177.778,251.110 178.364,251.255 179.269 M104.856 185.288 C 104.630 186.589,104.461 188.056,104.482 188.549 C 104.503 189.041,104.755 188.043,105.042 186.331 C 105.329 184.619,105.497 183.151,105.416 183.070 C 105.335 182.989,105.083 183.987,104.856 185.288 M294.882 183.519 C 294.877 183.926,295.094 185.426,295.364 186.852 C 295.634 188.278,295.864 188.944,295.874 188.333 C 295.885 187.722,295.668 186.222,295.392 185.000 C 295.116 183.778,294.887 183.111,294.882 183.519 M67.292 188.586 C 64.210 189.660,64.873 189.758,68.161 188.715 C 69.682 188.233,70.593 187.838,70.185 187.837 C 69.778 187.837,68.476 188.174,67.292 188.586 M71.192 192.500 L 71.111 197.407 87.685 197.319 L 104.259 197.230 87.881 197.130 L 71.504 197.029 71.388 192.311 L 71.272 187.593 71.192 192.500 M328.889 192.404 L 328.889 197.029 312.500 197.130 L 296.111 197.230 312.685 197.319 L 329.259 197.407 329.259 192.593 C 329.259 189.944,329.176 187.778,329.074 187.778 C 328.972 187.778,328.889 189.859,328.889 192.404 M332.210 188.715 C 333.731 189.198,335.032 189.536,335.101 189.467 C 335.290 189.278,330.684 187.773,330.021 187.808 C 329.704 187.824,330.689 188.233,332.210 188.715 M61.296 190.568 L 60.185 191.102 61.481 190.879 C 62.194 190.756,63.028 190.513,63.333 190.339 C 64.325 189.774,62.527 189.976,61.296 190.568 M337.037 190.339 C 337.343 190.513,338.176 190.756,338.889 190.879 L 340.185 191.102 339.074 190.568 C 337.843 189.976,336.046 189.774,337.037 190.339 M54.630 192.764 C 53.196 193.421,54.229 193.431,55.926 192.778 C 56.767 192.454,56.962 192.275,56.481 192.267 C 56.074 192.261,55.241 192.485,54.630 192.764 M344.444 192.778 C 346.142 193.431,347.174 193.421,345.741 192.764 C 345.130 192.485,344.296 192.261,343.889 192.267 C 343.408 192.275,343.603 192.454,344.444 192.778 M47.222 195.210 C 45.700 195.792,45.601 195.878,46.667 195.693 C 48.150 195.436,50.466 194.506,49.630 194.503 C 49.324 194.503,48.241 194.821,47.222 195.210 M351.296 194.987 C 351.907 195.252,352.991 195.570,353.704 195.693 C 354.769 195.878,354.670 195.792,353.148 195.210 C 351.077 194.418,349.564 194.235,351.296 194.987 M39.332 197.681 C 36.929 198.510,37.705 198.630,40.219 197.818 C 41.423 197.429,42.074 197.115,41.667 197.121 C 41.259 197.126,40.208 197.378,39.332 197.681 M360.151 197.818 C 361.355 198.206,362.403 198.461,362.481 198.384 C 362.668 198.196,359.069 197.027,358.449 197.074 C 358.182 197.094,358.948 197.429,360.151 197.818 M34.289 199.384 C 33.490 199.625,32.773 200.014,32.694 200.250 C 32.542 200.708,33.983 201.326,34.349 200.960 C 34.469 200.839,34.290 200.741,33.951 200.741 C 33.243 200.741,33.093 200.009,33.796 199.983 C 34.365 199.963,36.629 198.950,36.111 198.947 C 35.907 198.947,35.087 199.143,34.289 199.384 M365.000 199.443 C 365.611 199.731,366.319 199.974,366.574 199.983 C 367.277 200.009,367.128 200.741,366.420 200.741 C 366.080 200.741,365.901 200.839,366.021 200.960 C 366.334 201.272,367.778 200.760,367.778 200.336 C 367.778 199.946,366.714 199.489,365.000 199.144 L 363.889 198.919 365.000 199.443 M39.064 202.809 C 40.484 203.305,41.817 203.649,42.027 203.574 C 42.405 203.439,37.444 201.827,36.812 201.879 C 36.630 201.895,37.644 202.313,39.064 202.809 M360.370 202.678 C 359.046 203.095,358.134 203.497,358.344 203.573 C 358.553 203.649,359.886 203.305,361.307 202.809 C 364.433 201.717,363.736 201.620,360.370 202.678 M71.255 208.333 C 71.256 210.981,71.315 212.016,71.386 210.633 C 71.458 209.249,71.457 207.083,71.385 205.818 C 71.313 204.553,71.254 205.685,71.255 208.333 M116.296 205.102 C 116.296 206.312,116.602 209.096,117.283 214.074 C 117.380 214.787,117.452 215.704,117.441 216.111 C 117.419 216.972,119.918 226.214,120.396 227.037 C 121.086 228.226,120.717 226.035,119.430 221.296 C 118.244 216.929,117.064 209.114,117.044 205.497 L 117.037 204.141 132.222 204.127 L 147.407 204.113 147.418 204.927 C 147.429 205.713,147.881 212.053,148.335 217.778 C 148.868 224.503,152.561 241.987,154.027 244.726 C 154.510 245.629,154.051 245.907,149.543 247.433 C 146.873 248.337,144.074 249.686,144.074 250.069 C 144.074 250.229,144.782 250.035,145.648 249.636 C 147.803 248.645,152.556 246.833,153.796 246.531 C 154.977 246.243,155.010 246.010,154.220 243.519 C 153.897 242.500,153.573 241.250,153.501 240.740 C 153.428 240.230,152.782 237.774,152.065 235.282 C 151.347 232.789,150.858 230.496,150.977 230.185 C 151.096 229.874,151.010 229.399,150.785 229.128 C 150.561 228.857,150.475 228.537,150.596 228.416 C 150.716 228.296,150.677 227.978,150.509 227.710 C 150.341 227.442,150.169 226.712,150.127 226.088 C 150.085 225.463,149.779 223.130,149.448 220.902 C 148.755 216.250,148.447 212.073,148.517 208.277 C 148.545 206.751,148.399 205.525,148.172 205.385 C 147.955 205.251,147.778 204.818,147.778 204.423 C 147.778 203.722,147.371 203.704,132.037 203.704 L 116.296 203.704 116.296 205.102 M154.968 208.426 C 155.112 211.023,155.383 214.398,155.569 215.926 C 155.755 217.454,155.932 219.370,155.961 220.185 C 156.042 222.461,156.946 227.659,157.789 230.695 C 158.206 232.198,158.472 233.503,158.380 233.595 C 158.289 233.687,158.630 235.207,159.139 236.973 C 159.649 238.740,160.272 241.019,160.524 242.037 C 160.969 243.835,161.023 243.890,162.363 243.927 C 163.748 243.965,163.785 243.520,162.418 243.274 C 161.307 243.073,157.562 229.883,157.195 224.879 C 157.126 223.927,156.739 220.815,156.335 217.963 C 155.932 215.111,155.486 210.818,155.343 208.423 L 155.084 204.068 175.783 204.164 L 196.481 204.259 196.578 221.389 L 196.674 238.519 195.096 238.540 C 194.229 238.552,192.935 238.616,192.222 238.684 C 191.509 238.752,189.509 238.920,187.778 239.057 C 184.116 239.349,171.780 241.059,171.529 241.311 C 170.995 241.844,172.322 241.754,177.623 240.896 C 181.220 240.313,185.684 239.874,189.074 239.770 C 192.130 239.676,195.171 239.515,195.833 239.412 L 197.037 239.226 197.037 221.465 L 197.037 203.704 175.872 203.704 L 154.707 203.704 154.968 208.426 M203.632 208.501 C 203.569 211.140,203.635 213.182,203.777 213.038 C 203.919 212.895,204.085 210.861,204.147 208.519 L 204.259 204.259 224.815 204.259 L 245.370 204.259 245.254 207.963 C 245.058 214.176,243.190 227.836,241.886 232.593 C 241.467 234.120,241.047 235.978,240.954 236.722 C 240.861 237.465,240.280 239.372,239.663 240.961 C 238.611 243.670,238.463 244.666,239.233 243.864 C 239.744 243.332,241.369 238.218,241.823 235.714 C 242.047 234.481,242.651 231.816,243.166 229.792 C 243.681 227.767,244.184 225.111,244.285 223.889 C 244.385 222.667,244.702 219.750,244.989 217.407 C 245.276 215.065,245.629 211.023,245.773 208.426 L 246.034 203.704 224.890 203.704 L 203.745 203.704 203.632 208.501 M252.376 205.037 C 252.239 205.770,252.215 207.353,252.324 208.555 C 252.433 209.757,252.371 210.834,252.187 210.948 C 251.754 211.215,251.747 214.815,252.180 214.815 C 252.534 214.815,252.808 212.833,253.182 207.552 L 253.421 204.178 268.562 204.155 L 283.704 204.132 283.691 206.233 C 283.684 207.388,283.437 209.667,283.143 211.296 C 282.495 214.878,282.425 217.554,282.988 217.207 C 283.206 217.072,283.296 216.734,283.189 216.455 C 283.082 216.176,283.229 214.720,283.516 213.220 C 283.803 211.720,284.154 208.965,284.294 207.098 L 284.551 203.704 268.588 203.704 L 252.626 203.704 252.376 205.037 M329.033 208.333 C 329.033 210.981,329.092 212.016,329.164 210.633 C 329.235 209.249,329.235 207.083,329.163 205.818 C 329.091 204.553,329.032 205.685,329.033 208.333 M43.704 204.189 C 43.704 204.503,48.477 206.001,48.961 205.840 C 49.204 205.759,48.337 205.394,47.035 205.029 C 45.734 204.664,44.452 204.282,44.186 204.180 C 43.921 204.078,43.704 204.082,43.704 204.189 M353.519 204.994 C 352.093 205.464,351.185 205.866,351.502 205.888 C 352.132 205.929,356.667 204.470,356.667 204.225 C 356.667 203.988,356.287 204.081,353.519 204.994 M53.704 207.593 C 55.458 208.268,56.427 208.256,54.865 207.578 C 54.179 207.281,53.346 207.050,53.013 207.065 C 52.680 207.081,52.991 207.318,53.704 207.593 M345.370 207.606 C 343.944 208.259,344.963 208.249,346.667 207.593 C 347.478 207.280,347.686 207.094,347.222 207.095 C 346.815 207.096,345.981 207.326,345.370 207.606 M57.407 208.663 C 57.407 208.935,63.398 210.799,63.606 210.592 C 63.699 210.499,62.634 210.073,61.239 209.645 C 59.845 209.218,58.412 208.778,58.056 208.668 C 57.699 208.558,57.407 208.556,57.407 208.663 M339.498 209.498 C 337.898 210.003,336.667 210.494,336.762 210.589 C 336.959 210.786,342.963 208.945,342.963 208.688 C 342.963 208.431,342.643 208.506,339.498 209.498 M65.185 211.274 C 65.185 211.494,69.918 212.973,70.502 212.936 C 70.966 212.906,67.838 211.751,66.204 211.348 C 65.644 211.210,65.185 211.177,65.185 211.274 M104.482 211.822 C 104.435 212.933,105.214 217.502,105.416 217.300 C 105.497 217.219,105.329 215.752,105.042 214.039 C 104.755 212.327,104.503 211.329,104.482 211.822 M295.250 214.093 C 294.988 215.758,294.842 217.188,294.926 217.271 C 295.146 217.492,296.043 212.019,295.871 211.502 C 295.791 211.263,295.512 212.429,295.250 214.093 M332.037 212.019 C 330.611 212.497,329.635 212.906,329.868 212.926 C 330.425 212.975,335.185 211.502,335.185 211.281 C 335.185 211.005,334.765 211.103,332.037 212.019 M203.622 228.107 L 203.725 239.178 204.548 239.399 C 205.796 239.734,207.778 239.672,207.778 239.299 C 207.778 238.830,206.813 238.519,205.362 238.519 L 204.119 238.519 204.124 229.352 C 204.130 217.361,204.122 217.037,203.796 217.037 C 203.644 217.037,203.565 222.019,203.622 228.107 M251.307 218.967 C 251.423 219.272,251.258 221.141,250.940 223.121 C 250.621 225.101,250.449 226.864,250.557 227.039 C 250.665 227.213,250.572 227.468,250.351 227.604 C 250.130 227.741,250.037 228.081,250.144 228.359 C 250.251 228.637,250.165 228.972,249.954 229.103 C 249.743 229.233,249.670 229.739,249.792 230.226 C 249.914 230.713,249.870 231.111,249.693 231.111 C 249.516 231.111,249.358 231.609,249.341 232.218 C 249.323 232.827,248.807 234.952,248.193 236.940 C 247.580 238.929,246.959 241.222,246.814 242.037 C 246.669 242.852,246.323 244.062,246.046 244.727 C 245.571 245.865,245.590 245.954,246.382 246.262 C 246.844 246.441,248.306 247.010,249.630 247.526 C 252.888 248.796,253.704 249.005,253.704 248.571 C 253.704 248.369,252.912 247.952,251.944 247.645 C 249.980 247.020,246.530 245.841,246.393 245.748 C 246.344 245.714,246.541 245.032,246.830 244.232 C 249.502 236.834,252.735 219.776,251.637 218.865 C 251.197 218.499,251.134 218.518,251.307 218.967 M280.543 223.796 C 280.281 225.369,277.542 232.729,276.306 235.183 C 275.879 236.030,275.754 236.739,275.948 237.222 C 276.111 237.630,276.256 237.734,276.270 237.453 C 276.285 237.173,276.771 236.006,277.350 234.861 C 278.198 233.185,279.924 228.642,280.217 227.315 C 280.250 227.162,280.311 226.995,280.352 226.944 C 280.393 226.894,280.483 226.602,280.552 226.296 C 280.621 225.991,280.941 225.011,281.264 224.120 C 281.976 222.157,281.974 222.222,281.329 222.222 C 281.002 222.222,280.708 222.811,280.543 223.796 M106.720 223.889 C 106.723 224.662,107.705 227.500,107.744 226.852 C 107.756 226.648,107.530 225.731,107.241 224.815 C 106.953 223.898,106.718 223.481,106.720 223.889 M293.025 225.062 C 292.774 225.999,292.634 226.832,292.715 226.912 C 292.795 226.993,293.073 226.299,293.333 225.370 C 293.593 224.442,293.733 223.609,293.643 223.520 C 293.554 223.430,293.275 224.124,293.025 225.062 M123.241 233.920 C 123.014 234.146,125.724 240.305,126.313 240.901 C 127.313 241.914,126.925 240.377,125.389 237.242 C 123.587 233.560,123.592 233.568,123.241 233.920 M215.807 239.502 C 215.364 239.945,215.538 240.354,216.081 240.145 C 216.666 239.921,224.288 240.975,224.950 241.372 C 225.220 241.534,225.209 241.424,224.919 241.066 C 224.653 240.737,223.209 240.320,221.400 240.051 C 219.714 239.800,217.821 239.517,217.196 239.422 C 216.570 239.328,215.945 239.364,215.807 239.502 M229.259 241.393 C 229.259 241.722,234.510 242.998,235.564 242.925 C 236.124 242.886,235.174 242.584,232.222 241.862 C 231.306 241.638,230.264 241.366,229.907 241.258 C 229.551 241.150,229.259 241.211,229.259 241.393 M113.730 242.778 C 113.730 242.981,113.968 243.565,114.259 244.074 C 114.550 244.583,114.789 244.833,114.789 244.630 C 114.789 244.426,114.550 243.843,114.259 243.333 C 113.968 242.824,113.730 242.574,113.730 242.778 M269.178 247.637 C 264.680 254.126,265.040 253.792,263.371 253.031 C 262.637 252.696,261.412 252.042,260.648 251.577 C 259.884 251.112,259.259 250.889,259.259 251.082 C 259.259 251.515,264.016 254.074,264.821 254.074 C 265.331 254.074,269.024 249.530,270.913 246.577 C 271.283 245.998,271.744 245.671,271.985 245.815 C 272.217 245.954,272.179 245.786,271.899 245.441 C 271.214 244.597,271.375 244.466,269.178 247.637 M130.072 246.950 C 132.389 250.435,135.320 254.074,135.808 254.074 C 136.076 254.074,136.380 254.074,136.481 254.074 C 136.583 254.074,136.625 253.949,136.574 253.796 C 136.523 253.644,136.379 253.553,136.253 253.595 C 135.884 253.718,134.656 252.260,132.157 248.730 C 129.699 245.260,127.959 243.775,130.072 246.950 M205.675 245.828 L 203.757 245.963 203.638 249.076 C 203.570 250.855,203.657 252.049,203.842 251.863 C 204.021 251.684,204.177 250.441,204.189 249.102 L 204.212 246.667 205.770 246.667 C 206.813 246.667,207.399 246.483,207.541 246.111 C 207.659 245.806,207.718 245.586,207.674 245.624 C 207.629 245.662,206.730 245.753,205.675 245.828 M192.593 246.296 C 192.593 246.500,193.488 246.667,194.582 246.667 L 196.571 246.667 196.583 265.001 C 196.589 275.084,196.485 283.399,196.353 283.477 C 195.151 284.189,186.435 280.317,183.167 277.619 C 177.300 272.776,171.152 265.045,168.340 258.976 C 167.599 257.377,166.667 256.408,166.667 257.237 C 166.667 257.633,168.271 260.588,169.310 262.104 C 169.893 262.955,170.370 263.761,170.370 263.895 C 170.370 264.349,174.165 269.630,174.491 269.630 C 174.669 269.630,174.815 269.783,174.815 269.972 C 174.815 270.160,175.273 270.815,175.833 271.428 C 176.394 272.042,177.602 273.382,178.519 274.408 C 179.435 275.434,180.350 276.278,180.552 276.285 C 180.753 276.291,181.336 276.725,181.848 277.250 C 184.077 279.535,189.380 282.452,193.148 283.467 C 197.333 284.595,196.838 286.989,196.948 265.093 L 197.044 245.926 194.818 245.926 C 193.581 245.926,192.593 246.090,192.593 246.296 M184.444 246.675 C 183.120 246.827,181.915 246.880,181.766 246.792 C 181.617 246.704,179.450 246.997,176.951 247.445 C 174.452 247.892,172.215 248.261,171.980 248.265 C 171.745 248.269,171.641 248.503,171.750 248.787 C 171.858 249.070,172.164 249.219,172.429 249.117 C 172.694 249.015,173.547 248.825,174.326 248.694 C 175.104 248.563,176.942 248.220,178.410 247.932 C 179.879 247.643,182.138 247.407,183.432 247.407 C 184.927 247.407,186.046 247.209,186.503 246.864 C 186.899 246.565,187.139 246.337,187.037 246.359 C 186.935 246.380,185.769 246.522,184.444 246.675 M215.556 246.965 C 215.556 247.150,216.847 247.392,218.426 247.502 C 220.005 247.613,223.517 248.152,226.231 248.700 C 230.556 249.575,232.031 249.686,231.438 249.092 C 230.560 248.214,215.556 246.204,215.556 246.965 M153.534 253.488 C 149.973 254.862,150.682 255.229,154.392 253.932 C 155.840 253.426,157.087 253.126,157.165 253.266 C 157.242 253.405,157.424 254.016,157.570 254.624 C 157.798 255.571,157.887 255.638,158.193 255.092 C 158.427 254.674,158.414 254.201,158.155 253.717 C 157.412 252.329,156.638 252.291,153.534 253.488 M243.359 252.839 C 242.937 253.134,242.593 253.517,242.593 253.690 C 242.593 253.864,241.843 255.611,240.926 257.573 C 240.009 259.534,239.259 261.249,239.259 261.383 C 239.259 261.517,238.871 262.219,238.397 262.943 C 237.922 263.667,236.887 265.343,236.095 266.667 C 234.211 269.819,229.358 276.282,228.680 276.542 C 228.387 276.654,228.148 276.963,228.148 277.229 C 228.148 277.495,227.690 278.106,227.130 278.587 C 225.147 280.291,224.883 280.833,226.130 280.633 C 228.932 280.184,240.775 274.943,242.746 273.280 C 242.967 273.093,244.191 272.321,245.465 271.563 C 246.739 270.805,248.535 269.602,249.455 268.889 C 257.648 262.543,260.692 259.670,259.863 259.063 C 259.537 258.825,259.379 258.522,259.512 258.389 C 259.645 258.257,259.309 258.148,258.765 258.148 C 257.588 258.148,257.476 258.641,258.544 259.117 C 259.408 259.503,255.150 263.917,251.261 266.667 C 247.761 269.142,242.202 272.774,240.960 273.399 C 240.127 273.818,239.194 274.372,238.889 274.631 C 238.380 275.061,236.221 276.022,231.852 277.762 C 230.935 278.127,229.352 278.790,228.333 279.235 L 226.481 280.045 228.007 278.449 C 231.137 275.174,236.232 268.130,238.271 264.259 C 239.377 262.159,242.318 256.110,242.993 254.547 L 243.669 252.983 245.158 253.509 C 247.092 254.191,247.464 253.614,245.571 252.870 C 244.304 252.372,244.030 252.368,243.359 252.839 M120.333 254.259 C 120.957 255.467,121.470 256.137,121.468 255.741 C 121.466 255.537,121.124 254.954,120.708 254.444 C 120.205 253.829,120.079 253.767,120.333 254.259 M203.704 270.140 L 203.889 284.259 204.941 284.136 C 208.657 283.700,216.723 279.635,219.114 276.993 C 219.461 276.610,219.887 276.296,220.062 276.296 C 220.451 276.296,225.926 270.554,225.926 270.146 C 225.926 270.049,226.096 269.767,226.304 269.521 C 226.511 269.275,227.101 268.574,227.614 267.963 C 228.594 266.795,233.494 258.798,233.911 257.685 C 234.461 256.215,233.266 257.162,232.508 258.796 C 227.656 269.263,215.930 280.610,207.724 282.780 C 203.729 283.837,204.119 285.270,204.194 269.819 C 204.236 261.090,204.128 256.254,203.889 256.162 C 203.644 256.068,203.581 260.803,203.704 270.140 M158.889 257.260 C 158.889 257.615,162.579 264.819,163.307 265.884 C 163.670 266.417,164.698 268.019,165.591 269.444 C 166.484 270.870,167.583 272.454,168.034 272.963 C 170.391 275.627,173.709 279.630,173.560 279.630 C 172.911 279.630,163.922 275.784,162.222 274.780 C 161.917 274.599,160.833 274.014,159.815 273.481 C 152.396 269.593,140.473 259.887,142.180 259.125 C 143.126 258.703,143.199 258.272,142.326 258.272 C 139.242 258.272,140.735 260.530,147.222 265.677 C 148.648 266.808,150.130 268.018,150.516 268.365 C 151.438 269.193,156.576 272.593,156.907 272.593 C 157.048 272.593,157.427 272.823,157.749 273.104 C 159.753 274.855,172.941 280.741,174.861 280.741 C 175.465 280.741,175.107 280.169,173.063 277.870 C 169.596 273.973,168.340 272.348,165.518 268.113 C 163.464 265.029,162.330 263.033,160.857 259.907 C 159.712 257.478,158.889 256.371,158.889 257.260 M126.667 262.708 C 126.667 262.772,127.208 263.314,127.870 263.912 L 129.074 265.000 127.986 263.796 C 126.972 262.674,126.667 262.422,126.667 262.708 M272.202 263.981 L 270.926 265.370 272.315 264.094 C 273.608 262.906,273.874 262.593,273.591 262.593 C 273.529 262.593,272.904 263.218,272.202 263.981 M117.961 277.870 L 106.481 289.444 118.056 277.965 C 124.421 271.652,129.630 266.443,129.630 266.391 C 129.630 266.130,128.629 267.114,117.961 277.870 M263.684 272.500 L 262.407 273.889 263.796 272.613 C 265.089 271.425,265.355 271.111,265.073 271.111 C 265.011 271.111,264.386 271.736,263.684 272.500 M135.556 271.597 C 135.556 271.661,136.097 272.203,136.759 272.801 L 137.963 273.889 136.875 272.685 C 135.861 271.563,135.556 271.311,135.556 271.597 M143.953 278.548 C 144.413 279.104,146.667 280.522,146.667 280.255 C 146.667 280.169,145.958 279.631,145.093 279.060 C 144.227 278.489,143.714 278.259,143.953 278.548 M255.260 279.048 C 253.540 280.264,253.298 280.612,254.751 279.780 C 255.428 279.392,256.157 278.866,256.370 278.611 C 256.917 277.957,256.661 278.058,255.260 279.048 M98.963 283.796 C 97.944 285.483,96.302 289.019,96.464 289.180 C 96.537 289.253,97.355 287.801,98.280 285.953 C 99.988 282.541,100.282 281.612,98.963 283.796 M301.484 284.722 C 301.485 284.875,301.817 285.500,302.222 286.111 C 303.094 287.428,303.199 287.086,302.398 285.537 C 301.851 284.480,301.479 284.148,301.484 284.722 M156.296 286.111 C 156.806 286.402,157.389 286.640,157.593 286.640 C 157.796 286.640,157.546 286.402,157.037 286.111 C 156.528 285.820,155.944 285.582,155.741 285.582 C 155.537 285.582,155.787 285.820,156.296 286.111 M243.333 286.111 C 242.824 286.402,242.574 286.640,242.778 286.640 C 242.981 286.640,243.565 286.402,244.074 286.111 C 244.583 285.820,244.833 285.582,244.630 285.582 C 244.426 285.582,243.843 285.820,243.333 286.111 M304.311 290.359 C 304.669 290.964,305.018 291.402,305.087 291.333 C 305.311 291.109,304.336 289.259,303.994 289.259 C 303.811 289.259,303.954 289.754,304.311 290.359 M95.473 290.648 C 95.233 291.208,94.725 292.125,94.345 292.685 C 93.964 293.245,93.793 293.704,93.965 293.704 C 94.245 293.704,94.634 293.057,95.912 290.463 C 96.138 290.005,96.230 289.630,96.116 289.630 C 96.003 289.630,95.713 290.088,95.473 290.648 M174.444 293.148 C 175.157 293.423,176.074 293.649,176.481 293.651 C 176.889 293.653,176.472 293.418,175.556 293.129 C 173.462 292.469,172.716 292.482,174.444 293.148 M224.630 293.159 C 223.815 293.427,223.481 293.647,223.889 293.647 C 224.296 293.647,225.213 293.423,225.926 293.148 C 227.588 292.508,226.579 292.516,224.630 293.159 M306.469 294.259 C 306.624 294.667,306.835 295.292,306.937 295.648 C 307.040 296.005,307.267 296.296,307.443 296.296 C 307.618 296.296,307.567 295.838,307.329 295.278 C 306.809 294.054,306.048 293.153,306.469 294.259 M185.000 295.392 C 186.222 295.668,187.722 295.885,188.333 295.874 C 188.944 295.864,188.278 295.634,186.852 295.364 C 183.475 294.725,182.133 294.745,185.000 295.392 M213.333 295.384 C 211.979 295.644,211.412 295.856,212.037 295.870 C 212.648 295.883,214.148 295.668,215.370 295.392 C 218.148 294.765,216.585 294.759,213.333 295.384 M92.147 297.039 C 91.800 297.649,91.633 298.147,91.776 298.146 C 91.920 298.145,92.321 297.645,92.668 297.035 C 93.015 296.425,93.182 295.927,93.038 295.928 C 92.895 295.930,92.494 296.430,92.147 297.039 M197.037 312.582 L 197.037 328.867 192.315 328.983 L 187.593 329.098 192.500 329.179 L 197.407 329.259 197.407 312.778 C 197.407 303.713,197.324 296.296,197.222 296.296 C 197.120 296.296,197.037 303.625,197.037 312.582 M308.519 298.307 C 308.519 298.462,309.419 300.365,310.521 302.535 C 311.622 304.706,313.477 308.362,314.644 310.660 C 315.812 312.958,316.828 314.777,316.903 314.702 C 317.032 314.573,309.086 298.592,308.701 298.207 C 308.601 298.107,308.519 298.152,308.519 298.307 M90.599 300.278 C 90.107 301.245,89.103 303.188,88.368 304.596 C 87.632 306.003,87.096 307.219,87.175 307.299 C 87.306 307.430,90.923 300.726,91.562 299.167 C 92.108 297.836,91.462 298.581,90.599 300.278 M282.438 300.717 C 282.961 301.262,288.615 304.102,288.802 303.914 C 288.881 303.835,287.392 302.989,285.492 302.035 C 283.592 301.081,282.217 300.488,282.438 300.717 M114.352 302.434 C 113.792 302.738,113.333 303.061,113.333 303.152 C 113.333 303.359,115.246 302.558,115.722 302.152 C 116.302 301.657,115.467 301.829,114.352 302.434 M112.037 303.704 C 111.911 303.907,111.505 304.074,111.135 304.074 C 110.764 304.074,110.249 304.329,109.990 304.641 C 109.576 305.140,109.643 305.162,110.537 304.822 C 111.818 304.335,113.271 303.333,112.697 303.333 C 112.460 303.333,112.163 303.500,112.037 303.704 M289.793 304.641 C 290.188 304.940,290.708 305.185,290.947 305.185 C 291.186 305.185,291.821 305.531,292.357 305.953 C 292.894 306.375,293.333 306.565,293.333 306.376 C 293.333 306.186,292.485 305.591,291.447 305.053 C 289.367 303.973,288.686 303.804,289.793 304.641 M106.730 306.309 C 104.914 307.286,104.786 307.574,106.481 306.871 C 107.296 306.534,108.121 306.100,108.315 305.907 C 108.851 305.372,108.135 305.554,106.730 306.309 M293.704 306.472 C 293.704 306.765,295.981 307.846,296.180 307.647 C 296.282 307.545,295.858 307.200,295.238 306.879 C 294.063 306.272,293.704 306.176,293.704 306.472 M83.933 313.295 C 82.378 316.346,81.259 318.937,81.448 319.053 C 81.857 319.306,83.896 318.587,83.602 318.293 C 83.489 318.180,83.049 318.274,82.624 318.502 C 81.489 319.109,81.604 318.772,84.451 313.161 C 85.881 310.343,86.985 307.973,86.905 307.893 C 86.826 307.813,85.488 310.244,83.933 313.295 M102.286 308.531 C 100.835 309.311,100.482 309.611,101.170 309.478 C 102.065 309.305,103.704 308.407,103.704 308.089 C 103.704 307.918,103.662 307.798,103.611 307.823 C 103.560 307.848,102.964 308.167,102.286 308.531 M298.148 308.694 C 298.148 308.987,300.426 310.068,300.624 309.869 C 300.726 309.768,300.302 309.422,299.682 309.101 C 298.507 308.494,298.148 308.398,298.148 308.694 M95.098 312.151 C 92.504 313.486,90.454 314.652,90.544 314.741 C 90.722 314.920,99.600 310.518,100.167 309.970 C 100.892 309.268,99.711 309.776,95.098 312.151 M301.318 310.405 C 301.545 310.772,304.871 312.290,305.052 312.109 C 305.119 312.041,304.263 311.560,303.149 311.038 C 302.035 310.517,301.211 310.232,301.318 310.405 M307.611 313.633 C 308.090 314.042,310.000 314.840,310.000 314.631 C 310.000 314.427,307.925 313.333,307.537 313.333 C 307.384 313.333,307.418 313.468,307.611 313.633 M310.370 314.678 C 310.370 315.066,311.955 316.072,313.484 316.653 C 314.035 316.863,314.397 316.890,314.288 316.714 C 314.179 316.537,313.545 316.177,312.878 315.913 C 312.212 315.649,311.375 315.185,311.019 314.882 C 310.662 314.578,310.370 314.486,310.370 314.678 M87.870 315.867 C 86.801 316.385,85.926 316.919,85.926 317.054 C 85.926 317.381,89.530 315.646,89.818 315.180 C 89.942 314.979,89.992 314.840,89.929 314.870 C 89.866 314.901,88.940 315.350,87.870 315.867 M318.137 317.500 C 318.504 318.530,317.777 319.045,317.222 318.148 C 317.096 317.944,316.795 317.783,316.552 317.790 C 315.843 317.808,317.481 318.889,318.219 318.889 C 319.035 318.889,319.082 318.169,318.331 317.200 C 317.809 316.528,317.797 316.547,318.137 317.500 M206.034 329.164 C 207.417 329.235,209.584 329.235,210.849 329.163 C 212.113 329.091,210.981 329.032,208.333 329.033 C 205.685 329.033,204.650 329.092,206.034 329.164 M187.808 330.021 C 187.773 330.684,189.278 335.290,189.467 335.101 C 189.536 335.032,189.198 333.731,188.715 332.210 C 188.233 330.689,187.824 329.704,187.808 330.021 M211.910 332.281 C 211.471 333.742,211.184 335.012,211.274 335.101 C 211.363 335.190,211.799 334.070,212.242 332.612 C 212.685 331.154,212.971 329.885,212.878 329.792 C 212.785 329.699,212.350 330.819,211.910 332.281 M190.028 337.222 C 190.031 337.630,190.274 338.463,190.568 339.074 L 191.102 340.185 190.879 338.889 C 190.597 337.254,190.020 336.123,190.028 337.222 M209.478 339.663 C 208.960 341.352,208.603 342.800,208.685 342.883 C 208.767 342.965,209.268 341.660,209.798 339.983 C 210.328 338.306,210.685 336.857,210.591 336.764 C 210.497 336.670,209.997 337.975,209.478 339.663 M192.267 343.889 C 192.261 344.296,192.485 345.130,192.764 345.741 C 193.421 347.174,193.431 346.142,192.778 344.444 C 192.454 343.603,192.275 343.408,192.267 343.889 M207.491 345.648 C 207.241 346.339,207.049 347.143,207.063 347.434 C 207.077 347.725,207.330 347.305,207.625 346.500 C 207.920 345.696,208.112 344.892,208.053 344.715 C 207.994 344.537,207.741 344.957,207.491 345.648 M194.503 350.741 C 194.503 351.046,194.821 352.130,195.210 353.148 C 195.792 354.670,195.878 354.769,195.693 353.704 C 195.436 352.220,194.506 349.904,194.503 350.741 M204.908 353.729 C 204.470 355.230,204.170 356.515,204.240 356.586 C 204.460 356.806,205.995 351.873,205.845 351.425 C 205.768 351.192,205.346 352.229,204.908 353.729 M197.074 358.449 C 197.027 359.069,198.196 362.668,198.384 362.481 C 198.461 362.403,198.206 361.355,197.818 360.151 C 197.429 358.948,197.094 358.182,197.074 358.449 M202.593 360.741 C 202.156 362.206,201.863 363.468,201.941 363.546 C 202.018 363.623,202.461 362.510,202.924 361.072 C 203.387 359.634,203.681 358.372,203.576 358.267 C 203.471 358.163,203.029 359.276,202.593 360.741 M199.144 365.000 C 199.489 366.714,199.946 367.778,200.336 367.778 C 200.760 367.778,201.272 366.334,200.960 366.021 C 200.839 365.901,200.741 366.080,200.741 366.420 C 200.741 367.128,200.009 367.277,199.983 366.574 C 199.974 366.319,199.731 365.611,199.443 365.000 L 198.919 363.889 199.144 365.000 " stroke="none" fill="#1d062d" fill-rule="evenodd"></path></g></svg>